<?xml version="1.0" encoding="UTF-8"?>
<svg xmlns="http://www.w3.org/2000/svg" xmlns:xlink="http://www.w3.org/1999/xlink" width="50pt" height="50pt" viewBox="0 0 50 50" version="1.1">
<g id="surface5800044">
<path style=" stroke:none;fill-rule:nonzero;fill:rgb(0, 0, 0);fill-opacity:1;" d="M 20.59375 5.078125 C 19.914062 5.113281 19.273438 5.511719 18.96875 6.164062 C 18.960938 6.183594 18.953125 6.203125 18.945312 6.226562 C 18.644531 7.097656 18.140625 7.605469 17.234375 7.941406 C 16.328125 8.28125 15.003906 8.390625 13.265625 8.253906 L 13.265625 8.257812 C 9.878906 7.996094 6.828125 10.601562 6.554688 13.988281 C 6.289062 17.246094 7.902344 19.214844 9.539062 20.21875 C 10.542969 20.835938 11.410156 21.089844 12.050781 21.230469 C 11.570312 22.265625 11.25 23.375 11.25 24.523438 L 11.25 43.277344 C 11.25 44.714844 12.441406 45.847656 13.898438 45.773438 C 15.230469 45.707031 16.25 44.5625 16.25 43.25 L 16.25 32.027344 C 16.25 31.464844 16.800781 30.984375 17.410156 31.109375 C 17.816406 31.195312 18.125 31.613281 18.125 32.078125 L 18.125 42.878906 C 18.125 44.316406 19.277344 45.585938 20.753906 45.574219 C 21.417969 45.566406 21.835938 45.324219 22.015625 45.207031 C 23.148438 44.472656 23.125 43.15625 23.125 42.996094 L 23.125 37.832031 L 23.132812 33.714844 C 23.136719 32.613281 23.660156 31.578125 24.550781 30.960938 C 24.554688 30.957031 24.566406 30.949219 24.574219 30.945312 C 24.960938 30.675781 25.515625 30.308594 26.214844 29.964844 C 26.226562 33.933594 26.238281 37.90625 26.25 41.878906 C 26.25 43.246094 27.378906 44.375 28.75 44.375 C 30.121094 44.375 31.25 43.246094 31.25 41.875 L 31.25 29.046875 C 31.96875 29.121094 32.71875 29.292969 33.238281 29.679688 C 33.878906 30.15625 34.15625 30.75 34.15625 30.75 C 34.253906 30.960938 34.34375 31.242188 34.375 31.609375 L 34.375 41.980469 C 34.375 43.28125 35.378906 44.449219 36.722656 44.476562 C 38.117188 44.5 39.375 43.476562 39.375 42.027344 L 39.375 22.722656 C 41.902344 21.878906 43.75 19.785156 43.75 17.167969 L 43.75 9.375 C 43.75 9.121094 43.597656 8.894531 43.363281 8.796875 C 43.128906 8.699219 42.863281 8.753906 42.683594 8.933594 L 39.824219 11.792969 C 38.878906 11.417969 37.871094 11.25 36.875 11.25 C 35.886719 11.25 34.847656 11.410156 33.925781 11.792969 L 31.050781 8.933594 C 30.929688 8.8125 30.769531 8.746094 30.597656 8.75 C 30.257812 8.757812 29.984375 9.035156 29.984375 9.375 L 29.984375 15.988281 C 28.246094 15.378906 26.039062 14.820312 23.40625 14.699219 C 21.464844 14.605469 19.691406 14.578125 17.5 15.183594 C 16.132812 15.5625 15.105469 16.0625 14.308594 16.4375 C 13.515625 16.8125 12.972656 17.019531 12.589844 16.988281 C 11.027344 16.867188 9.890625 15.339844 10.40625 13.722656 C 10.757812 12.628906 11.878906 11.914062 13.042969 12 C 16.058594 12.222656 18.167969 11.722656 19.636719 10.832031 C 21.105469 9.941406 21.894531 8.667969 22.320312 7.519531 C 22.324219 7.511719 22.328125 7.503906 22.328125 7.5 C 22.625 6.609375 22.210938 5.605469 21.335938 5.199219 C 21.316406 5.1875 21.292969 5.179688 21.269531 5.171875 C 21.046875 5.097656 20.816406 5.066406 20.59375 5.078125 Z M 20.609375 6.328125 C 20.679688 6.324219 20.757812 6.335938 20.835938 6.359375 C 21.136719 6.515625 21.246094 6.78125 21.140625 7.097656 C 20.78125 8.0625 20.175781 9.039062 18.988281 9.761719 C 17.796875 10.488281 15.972656 10.964844 13.132812 10.753906 C 11.410156 10.625 9.75 11.671875 9.21875 13.339844 C 8.464844 15.699219 10.15625 18.054688 12.496094 18.234375 C 13.320312 18.300781 14.03125 17.953125 14.84375 17.570312 C 15.65625 17.1875 16.585938 16.730469 17.832031 16.386719 C 18.261719 16.269531 18.667969 16.179688 19.066406 16.109375 C 19.136719 16.175781 19.214844 16.230469 19.3125 16.257812 C 19.367188 16.273438 19.425781 16.28125 19.480469 16.28125 C 19.699219 16.28125 19.898438 16.160156 20.015625 15.976562 C 21.117188 15.863281 22.167969 15.890625 23.347656 15.945312 C 23.84375 15.96875 24.320312 16.015625 24.785156 16.066406 C 24.695312 16.347656 24.796875 16.65625 25.070312 16.804688 C 25.164062 16.855469 25.261719 16.882812 25.367188 16.882812 C 25.585938 16.882812 25.800781 16.769531 25.914062 16.554688 C 25.96875 16.453125 25.984375 16.34375 25.980469 16.238281 C 27.542969 16.5 28.882812 16.902344 29.992188 17.3125 C 30.082031 20.667969 33.21875 23.128906 36.875 23.128906 C 37.300781 23.128906 37.71875 23.089844 38.125 23.027344 L 38.125 42.027344 C 38.125 42.792969 37.574219 43.242188 36.746094 43.226562 C 36.128906 43.214844 35.625 42.640625 35.625 41.980469 L 35.625 31.5625 C 35.625 31.546875 35.625 31.53125 35.625 31.511719 C 35.582031 30.984375 35.441406 30.550781 35.292969 30.230469 C 35.292969 30.230469 34.894531 29.351562 33.980469 28.675781 C 32.160156 27.328125 29.496094 27.757812 29.023438 27.816406 C 26.492188 28.132812 24.710938 29.332031 23.863281 29.914062 C 23.859375 29.917969 23.851562 29.925781 23.84375 29.929688 C 23.84375 29.929688 23.84375 29.929688 23.839844 29.929688 C 22.597656 30.789062 21.886719 32.21875 21.882812 33.710938 L 21.875 37.832031 L 21.875 43 C 21.875 43 21.875 43.003906 21.875 43.003906 C 21.875 43.042969 21.835938 43.835938 21.335938 44.160156 C 21.386719 44.125 21.035156 44.320312 20.742188 44.324219 C 20.019531 44.332031 19.375 43.636719 19.375 42.878906 L 19.375 32.078125 C 19.375 31.0625 18.703125 30.101562 17.664062 29.886719 C 16.292969 29.601562 15 30.664062 15 32.027344 L 15 43.25 C 15 43.921875 14.484375 44.492188 13.835938 44.523438 C 12.988281 44.566406 12.5 44.097656 12.5 43.277344 L 12.5 24.523438 C 12.5 23.316406 12.832031 22.128906 13.460938 21.09375 C 13.570312 20.910156 13.582031 20.679688 13.484375 20.488281 C 13.390625 20.296875 13.203125 20.167969 12.988281 20.148438 C 12.988281 20.148438 11.554688 19.992188 10.195312 19.15625 C 8.832031 18.320312 7.570312 16.921875 7.800781 14.089844 C 8.019531 11.398438 10.476562 9.292969 13.171875 9.503906 C 15.003906 9.644531 16.488281 9.554688 17.671875 9.113281 C 18.835938 8.679688 19.6875 7.84375 20.101562 6.691406 C 20.214844 6.453125 20.394531 6.335938 20.609375 6.328125 Z M 31.234375 10.878906 L 33.308594 12.941406 C 33.503906 13.136719 33.804688 13.179688 34.050781 13.050781 C 34.746094 12.667969 35.84375 12.5 36.875 12.5 C 37.90625 12.5 38.910156 12.652344 39.71875 13.058594 C 39.960938 13.179688 40.25 13.132812 40.441406 12.941406 L 42.5 10.882812 L 42.5 17.167969 C 42.5 19.820312 40.027344 21.878906 36.875 21.878906 C 33.722656 21.878906 31.234375 19.820312 31.234375 17.167969 L 31.234375 17.007812 C 31.253906 16.921875 31.253906 16.828125 31.234375 16.742188 Z M 34.378906 14.382812 C 33.691406 14.382812 33.132812 14.9375 33.132812 15.628906 C 33.132812 16.316406 33.6875 16.875 34.378906 16.875 C 35.066406 16.875 35.625 16.316406 35.625 15.628906 C 35.625 14.941406 35.066406 14.382812 34.378906 14.382812 Z M 39.371094 14.382812 C 38.683594 14.382812 38.125 14.9375 38.125 15.628906 C 38.125 16.316406 38.679688 16.875 39.371094 16.875 C 40.058594 16.875 40.617188 16.316406 40.617188 15.628906 C 40.617188 14.941406 40.0625 14.382812 39.371094 14.382812 Z M 21.617188 16.101562 C 21.460938 16.132812 21.316406 16.222656 21.21875 16.363281 C 21.023438 16.648438 21.101562 17.035156 21.386719 17.230469 C 21.496094 17.304688 21.613281 17.34375 21.738281 17.34375 C 21.9375 17.34375 22.132812 17.242188 22.25 17.066406 C 22.449219 16.78125 22.375 16.394531 22.085938 16.199219 C 21.945312 16.101562 21.773438 16.074219 21.617188 16.101562 Z M 27.339844 17.222656 C 27.183594 17.207031 27.019531 17.253906 26.886719 17.363281 C 26.617188 17.582031 26.582031 17.976562 26.800781 18.238281 C 26.925781 18.386719 27.101562 18.46875 27.28125 18.46875 C 27.417969 18.46875 27.5625 18.425781 27.675781 18.324219 C 27.941406 18.105469 27.980469 17.714844 27.761719 17.453125 C 27.652344 17.316406 27.5 17.238281 27.339844 17.222656 Z M 36.875 17.5 C 36.53125 17.5 36.25 17.78125 36.25 18.125 C 36.25 18.46875 36.53125 18.75 36.875 18.75 C 37.21875 18.75 37.5 18.46875 37.5 18.125 C 37.5 17.78125 37.21875 17.5 36.875 17.5 Z M 23.625 17.820312 C 23.46875 17.796875 23.300781 17.835938 23.164062 17.9375 C 22.882812 18.144531 22.824219 18.53125 23.03125 18.8125 C 23.148438 18.972656 23.34375 19.0625 23.53125 19.0625 C 23.664062 19.0625 23.792969 19.023438 23.90625 18.945312 C 24.179688 18.738281 24.238281 18.34375 24.039062 18.070312 C 23.933594 17.929688 23.785156 17.84375 23.625 17.820312 Z M 28.523438 19.40625 C 28.441406 19.398438 28.359375 19.40625 28.273438 19.429688 C 27.945312 19.539062 27.761719 19.886719 27.863281 20.21875 C 27.945312 20.480469 28.191406 20.65625 28.460938 20.65625 C 28.523438 20.65625 28.585938 20.644531 28.644531 20.625 C 28.976562 20.523438 29.164062 20.175781 29.054688 19.84375 C 28.980469 19.59375 28.765625 19.429688 28.523438 19.40625 Z M 24.714844 20.035156 C 24.636719 20.027344 24.550781 20.035156 24.46875 20.0625 C 24.144531 20.164062 23.957031 20.511719 24.054688 20.84375 C 24.144531 21.113281 24.386719 21.28125 24.65625 21.28125 C 24.71875 21.28125 24.78125 21.273438 24.84375 21.257812 C 25.167969 21.15625 25.355469 20.800781 25.257812 20.476562 C 25.175781 20.226562 24.960938 20.058594 24.714844 20.035156 Z M 17.492188 20.617188 C 17.328125 20.621094 17.171875 20.6875 17.058594 20.808594 L 16.5625 21.304688 L 16.066406 20.808594 C 15.949219 20.6875 15.789062 20.617188 15.617188 20.617188 C 15.363281 20.617188 15.136719 20.773438 15.039062 21.007812 C 14.945312 21.246094 15 21.515625 15.183594 21.691406 L 15.679688 22.1875 L 15.183594 22.683594 C 15.019531 22.839844 14.953125 23.074219 15.011719 23.292969 C 15.066406 23.511719 15.238281 23.683594 15.457031 23.738281 C 15.675781 23.796875 15.910156 23.730469 16.066406 23.566406 L 16.5625 23.070312 L 17.058594 23.566406 C 17.214844 23.730469 17.449219 23.796875 17.667969 23.738281 C 17.886719 23.683594 18.058594 23.511719 18.113281 23.292969 C 18.171875 23.074219 18.105469 22.839844 17.941406 22.683594 L 17.445312 22.1875 L 17.941406 21.691406 C 18.128906 21.511719 18.183594 21.238281 18.085938 21 C 17.988281 20.761719 17.75 20.609375 17.492188 20.617188 Z M 28.792969 21.875 C 28.449219 21.851562 28.148438 22.113281 28.125 22.457031 C 28.101562 22.800781 28.363281 23.101562 28.707031 23.125 L 28.75 23.125 C 29.074219 23.125 29.351562 22.875 29.375 22.542969 C 29.398438 22.199219 29.136719 21.898438 28.792969 21.875 Z M 25.011719 22.5 C 24.667969 22.492188 24.382812 22.769531 24.375 23.113281 C 24.367188 23.457031 24.644531 23.742188 24.988281 23.75 L 25 23.75 C 25.335938 23.75 25.617188 23.480469 25.625 23.136719 C 25.632812 22.792969 25.355469 22.507812 25.011719 22.5 Z M 30 29.003906 L 30 41.875 C 30 42.5625 29.4375 43.125 28.75 43.125 C 28.0625 43.125 27.5 42.5625 27.5 41.875 L 27.5 41.871094 C 27.488281 37.730469 27.472656 33.59375 27.460938 29.453125 C 27.984375 29.28125 28.550781 29.136719 29.179688 29.058594 C 29.316406 29.039062 29.621094 29.015625 30 29.003906 Z M 30 29.003906 "/>
</g>
</svg>
