<?xml version="1.0" encoding="UTF-8"?>
<svg xmlns="http://www.w3.org/2000/svg" xmlns:xlink="http://www.w3.org/1999/xlink" width="50pt" height="50pt" viewBox="0 0 50 50" version="1.1">
<g id="surface5800038">
<path style=" stroke:none;fill-rule:nonzero;fill:rgb(253, 198, 248);fill-opacity:1;" d="M 19.277344 5.632812 C 18.476562 5.585938 17.695312 6.0625 17.398438 6.851562 C 17.390625 6.871094 17.386719 6.890625 17.378906 6.914062 C 17.148438 7.804688 16.683594 8.351562 15.808594 8.757812 C 14.929688 9.164062 13.621094 9.375 11.875 9.375 C 8.480469 9.375 5.625 12.25 5.625 15.640625 C 5.625 18.894531 7.386719 20.722656 9.089844 21.59375 C 10.304688 22.214844 11.28125 22.367188 11.875 22.429688 L 11.875 41.75 C 11.875 43.179688 13.058594 44.324219 14.480469 44.324219 C 15.1875 44.324219 15.824219 44.023438 16.242188 43.546875 C 16.664062 43.066406 16.875 42.425781 16.875 41.75 L 16.875 34.222656 C 17.328125 34.148438 17.765625 34.09375 18.328125 33.863281 C 19.128906 33.535156 20.019531 33.054688 20.863281 32.410156 C 21.792969 31.699219 22.660156 30.769531 23.261719 29.652344 C 23.304688 29.605469 23.34375 29.554688 23.371094 29.5 C 24.179688 27.886719 25.796875 27.492188 26.871094 27.5 C 27.71875 27.503906 28.527344 27.917969 29.117188 28.433594 C 29.414062 28.695312 29.652344 28.976562 29.804688 29.21875 C 29.953125 29.457031 30 29.671875 30 29.671875 L 30 41.75 C 30 42.425781 30.214844 43.066406 30.636719 43.546875 C 31.058594 44.027344 31.695312 44.324219 32.402344 44.324219 C 33.773438 44.324219 35 43.300781 35 41.875 L 35 30.625 C 35 30.097656 35.394531 29.6875 35.910156 29.6875 C 36.425781 29.6875 36.875 30.121094 36.875 30.625 L 36.875 41.875 C 36.875 43.265625 37.984375 44.375 39.375 44.375 C 40.765625 44.375 41.875 43.265625 41.875 41.875 L 41.875 21.15625 C 43.386719 20.085938 44.375 18.453125 44.375 16.542969 L 44.375 8.75 C 44.375 8.496094 44.222656 8.269531 43.988281 8.171875 C 43.753906 8.074219 43.488281 8.128906 43.308594 8.308594 L 40.449219 11.167969 C 39.503906 10.792969 38.496094 10.625 37.5 10.625 C 36.511719 10.625 35.472656 10.785156 34.550781 11.167969 L 31.675781 8.308594 C 31.554688 8.1875 31.394531 8.121094 31.222656 8.125 C 30.882812 8.132812 30.609375 8.410156 30.609375 8.75 L 30.609375 16.171875 C 28.609375 15.425781 25.660156 15.015625 22.5 15.015625 C 18.96875 15.015625 16.65625 15.832031 15.03125 16.640625 C 13.410156 17.449219 12.464844 18.136719 11.875 18.136719 C 10.5 18.136719 9.375 17.011719 9.375 15.640625 C 9.375 14.269531 10.507812 13.125 11.875 13.125 C 14.925781 13.125 17.003906 12.464844 18.410156 11.460938 C 19.816406 10.457031 20.507812 9.125 20.847656 7.941406 C 20.847656 7.933594 20.851562 7.929688 20.851562 7.921875 C 21.078125 7.015625 20.585938 6.042969 19.683594 5.703125 C 19.664062 5.695312 19.640625 5.6875 19.617188 5.683594 C 19.503906 5.65625 19.390625 5.636719 19.277344 5.632812 Z M 19.050781 6.886719 C 19.121094 6.878906 19.199219 6.882812 19.277344 6.898438 C 19.589844 7.035156 19.714844 7.292969 19.640625 7.613281 C 19.351562 8.605469 18.820312 9.632812 17.683594 10.445312 C 16.542969 11.261719 14.746094 11.875 11.875 11.875 C 9.8125 11.875 8.125 13.585938 8.125 15.640625 C 8.125 17.699219 9.820312 19.386719 11.875 19.386719 C 13.160156 19.386719 14.089844 18.507812 15.59375 17.761719 C 17.09375 17.011719 19.15625 16.265625 22.5 16.265625 C 25.882812 16.265625 29.070312 16.816406 30.714844 17.570312 C 31.28125 20.464844 34.175781 22.503906 37.5 22.503906 C 38.617188 22.503906 39.679688 22.269531 40.625 21.855469 L 40.625 41.875 C 40.625 42.667969 40.167969 43.125 39.375 43.125 C 38.582031 43.125 38.125 42.667969 38.125 41.875 L 38.125 30.625 C 38.125 29.414062 37.109375 28.4375 35.910156 28.4375 C 34.710938 28.4375 33.75 29.4375 33.75 30.625 L 33.75 41.875 C 33.75 42.628906 33.214844 43.074219 32.402344 43.074219 C 32.023438 43.074219 31.769531 42.941406 31.574219 42.722656 C 31.378906 42.5 31.25 42.164062 31.25 41.75 L 31.25 29.671875 C 31.25 29.253906 31.085938 28.910156 30.859375 28.550781 C 30.632812 28.191406 30.324219 27.828125 29.941406 27.496094 C 29.179688 26.824219 28.113281 26.257812 26.878906 26.25 C 26.070312 26.246094 25.007812 26.445312 24.050781 27.015625 C 24.0625 26.863281 24.066406 26.707031 24.066406 26.554688 C 24.066406 26.453125 24.046875 26.359375 24 26.269531 L 24.035156 26.074219 L 23.65625 25.664062 L 23.4375 25.625 L 22.9375 25.875 L 22.859375 26.320312 C 22.828125 26.394531 22.816406 26.472656 22.816406 26.554688 C 22.816406 28.65625 21.589844 30.28125 20.101562 31.414062 C 19.359375 31.984375 18.558594 32.421875 17.855469 32.707031 C 17.148438 32.996094 16.519531 33.125 16.25 33.125 C 15.90625 33.125 15.625 33.40625 15.625 33.75 L 15.625 41.75 C 15.625 42.167969 15.496094 42.5 15.300781 42.722656 C 15.109375 42.941406 14.859375 43.074219 14.480469 43.074219 C 13.714844 43.074219 13.125 42.503906 13.125 41.75 L 13.125 21.878906 C 13.125 21.539062 12.855469 21.261719 12.515625 21.253906 C 12.515625 21.253906 11.078125 21.207031 9.660156 20.480469 C 8.238281 19.757812 6.875 18.46875 6.875 15.640625 C 6.875 12.957031 9.191406 10.625 11.875 10.625 C 13.714844 10.625 15.1875 10.421875 16.332031 9.890625 C 17.460938 9.367188 18.246094 8.46875 18.570312 7.289062 C 18.664062 7.039062 18.835938 6.910156 19.050781 6.886719 Z M 31.859375 10.253906 L 33.933594 12.316406 C 34.128906 12.511719 34.429688 12.554688 34.675781 12.425781 C 35.371094 12.042969 36.46875 11.875 37.5 11.875 C 38.53125 11.875 39.535156 12.027344 40.34375 12.433594 C 40.585938 12.554688 40.875 12.507812 41.066406 12.316406 L 43.125 10.257812 L 43.125 16.542969 C 43.125 19.195312 40.652344 21.253906 37.5 21.253906 C 34.347656 21.253906 31.859375 19.195312 31.859375 16.542969 Z M 35.003906 13.757812 C 34.671875 13.757812 34.355469 13.886719 34.121094 14.121094 C 33.886719 14.355469 33.757812 14.671875 33.757812 15.003906 C 33.757812 15.335938 33.886719 15.652344 34.121094 15.886719 C 34.355469 16.117188 34.671875 16.25 35.003906 16.25 C 35.691406 16.25 36.25 15.691406 36.25 15.003906 C 36.25 14.671875 36.117188 14.355469 35.886719 14.121094 C 35.652344 13.886719 35.335938 13.757812 35.003906 13.757812 Z M 39.996094 13.757812 C 39.664062 13.757812 39.347656 13.886719 39.113281 14.121094 C 38.882812 14.355469 38.75 14.671875 38.75 15.003906 C 38.75 15.691406 39.308594 16.25 39.996094 16.25 C 40.328125 16.25 40.644531 16.117188 40.878906 15.886719 C 41.113281 15.652344 41.242188 15.335938 41.242188 15.003906 C 41.242188 14.671875 41.113281 14.355469 40.878906 14.121094 C 40.644531 13.886719 40.328125 13.757812 39.996094 13.757812 Z M 37.5 16.875 C 37.15625 16.875 36.875 17.15625 36.875 17.5 C 36.875 17.84375 37.15625 18.125 37.5 18.125 C 37.84375 18.125 38.125 17.84375 38.125 17.5 C 38.125 17.15625 37.84375 16.875 37.5 16.875 Z M 20.933594 18.878906 L 20.433594 19.128906 L 20.335938 19.679688 L 20.714844 20.089844 L 20.933594 20.128906 L 21.433594 19.875 L 21.535156 19.324219 L 21.152344 18.917969 Z M 22.519531 20.746094 L 22.019531 20.996094 L 21.921875 21.546875 L 22.300781 21.957031 L 22.519531 21.996094 L 23.019531 21.742188 L 23.117188 21.191406 L 22.738281 20.78125 Z M 23.214844 23.136719 L 22.710938 23.390625 L 22.613281 23.941406 L 22.996094 24.347656 L 23.214844 24.386719 L 23.714844 24.136719 L 23.8125 23.585938 L 23.429688 23.175781 Z M 23.214844 23.136719 "/>
</g>
</svg>
