<?xml version="1.0" encoding="UTF-8"?>
<svg xmlns="http://www.w3.org/2000/svg" xmlns:xlink="http://www.w3.org/1999/xlink" width="50pt" height="50pt" viewBox="0 0 50 50" version="1.1">
<g id="surface5941926">
<path style=" stroke:none;fill-rule:nonzero;fill:rgb(253, 198, 248);fill-opacity:1;" d="M 18.75 4.375 C 11.195312 4.375 5 9.945312 5 16.875 C 5 20.480469 6.722656 23.691406 9.394531 25.964844 C 8.988281 26.898438 8.492188 27.570312 8.019531 28.09375 C 7.753906 28.390625 7.5 28.648438 7.285156 28.9375 C 7.070312 29.222656 6.875 29.574219 6.875 30 L 6.875 30.625 L 7.5 30.625 C 9.640625 30.625 11.976562 29.582031 13.890625 28.542969 C 15.121094 28.964844 16.425781 29.238281 17.789062 29.332031 C 17.601562 30.152344 17.5 31.003906 17.5 31.875 C 17.5 38.804688 23.695312 44.375 31.25 44.375 C 32.964844 44.375 34.59375 44.0625 36.109375 43.542969 C 38.023438 44.582031 40.359375 45.625 42.5 45.625 L 43.125 45.625 L 43.125 45 C 43.125 44.574219 42.929688 44.222656 42.714844 43.9375 C 42.5 43.648438 42.246094 43.390625 41.980469 43.09375 C 41.507812 42.570312 41.011719 41.898438 40.605469 40.964844 C 43.277344 38.691406 45 35.480469 45 31.875 C 45 25.238281 39.320312 19.851562 32.207031 19.402344 C 32.390625 18.589844 32.5 17.742188 32.5 16.875 C 32.5 9.945312 26.304688 4.375 18.75 4.375 Z M 18.75 5.625 C 25.691406 5.625 31.25 10.691406 31.25 16.875 C 31.25 23.058594 25.691406 28.125 18.75 28.125 C 17.085938 28.125 15.503906 27.824219 14.050781 27.296875 L 13.777344 27.195312 L 13.53125 27.335938 C 12.066406 28.144531 10.355469 28.792969 8.796875 29.097656 C 8.855469 29.035156 8.882812 29 8.949219 28.929688 C 9.515625 28.300781 10.246094 27.410156 10.742188 26.046875 L 10.894531 25.621094 L 10.539062 25.34375 C 7.902344 23.273438 6.25 20.25 6.25 16.875 C 6.25 10.691406 11.808594 5.625 18.75 5.625 Z M 31.847656 20.648438 C 33.433594 20.714844 34.945312 21.039062 36.320312 21.589844 C 36.273438 21.675781 36.25 21.773438 36.25 21.875 C 36.25 22.21875 36.53125 22.5 36.875 22.5 C 37.132812 22.5 37.359375 22.34375 37.453125 22.109375 C 39.601562 23.214844 41.335938 24.878906 42.4375 26.878906 C 42.121094 26.910156 41.875 27.179688 41.875 27.5 C 41.875 27.84375 42.15625 28.125 42.5 28.125 C 42.667969 28.125 42.828125 28.058594 42.949219 27.9375 C 43.460938 29.164062 43.75 30.488281 43.75 31.875 C 43.75 35.25 42.097656 38.273438 39.460938 40.34375 L 39.105469 40.621094 L 39.257812 41.046875 C 39.753906 42.410156 40.484375 43.300781 41.050781 43.929688 C 41.117188 44 41.144531 44.035156 41.203125 44.097656 C 39.644531 43.792969 37.933594 43.144531 36.46875 42.335938 L 36.222656 42.199219 L 35.949219 42.296875 C 35.84375 42.335938 35.726562 42.363281 35.617188 42.398438 C 35.566406 42.097656 35.304688 41.875 35 41.875 C 34.65625 41.875 34.375 42.15625 34.375 42.5 C 34.375 42.582031 34.390625 42.667969 34.425781 42.742188 C 33.410156 42.984375 32.351562 43.125 31.25 43.125 C 31.59375 43.125 31.875 42.84375 31.875 42.5 C 31.875 42.15625 31.59375 41.875 31.25 41.875 C 30.90625 41.875 30.625 42.15625 30.625 42.5 C 30.625 42.824219 30.871094 43.09375 31.195312 43.121094 C 30.113281 43.117188 29.074219 42.980469 28.074219 42.746094 C 28.109375 42.667969 28.125 42.585938 28.125 42.5 C 28.125 42.15625 27.84375 41.875 27.5 41.875 C 27.191406 41.875 26.929688 42.101562 26.882812 42.40625 C 22.121094 40.808594 18.75 36.6875 18.75 31.875 C 18.75 31.011719 18.863281 30.171875 19.070312 29.367188 C 19.828125 29.351562 20.570312 29.28125 21.289062 29.15625 C 21.265625 29.226562 21.25 29.300781 21.25 29.375 C 21.25 29.71875 21.53125 30 21.875 30 C 22.21875 30 22.5 29.71875 22.5 29.375 C 22.5 29.214844 22.4375 29.058594 22.328125 28.945312 C 24.835938 28.324219 27.066406 27.070312 28.800781 25.386719 C 28.765625 25.460938 28.75 25.542969 28.75 25.625 C 28.75 25.96875 29.03125 26.25 29.375 26.25 C 29.71875 26.25 30 25.96875 30 25.625 C 30 25.28125 29.71875 25 29.375 25 C 29.292969 25 29.210938 25.015625 29.136719 25.046875 C 30.34375 23.78125 31.269531 22.289062 31.847656 20.648438 Z M 33.125 21.25 C 32.78125 21.25 32.5 21.53125 32.5 21.875 C 32.5 22.21875 32.78125 22.5 33.125 22.5 C 33.46875 22.5 33.75 22.21875 33.75 21.875 C 33.75 21.53125 33.46875 21.25 33.125 21.25 Z M 31.25 23.125 C 30.90625 23.125 30.625 23.40625 30.625 23.75 C 30.625 24.09375 30.90625 24.375 31.25 24.375 C 31.59375 24.375 31.875 24.09375 31.875 23.75 C 31.875 23.40625 31.59375 23.125 31.25 23.125 Z M 35 23.125 C 34.65625 23.125 34.375 23.40625 34.375 23.75 C 34.375 24.09375 34.65625 24.375 35 24.375 C 35.34375 24.375 35.625 24.09375 35.625 23.75 C 35.625 23.40625 35.34375 23.125 35 23.125 Z M 38.75 23.125 C 38.40625 23.125 38.125 23.40625 38.125 23.75 C 38.125 24.09375 38.40625 24.375 38.75 24.375 C 39.09375 24.375 39.375 24.09375 39.375 23.75 C 39.375 23.40625 39.09375 23.125 38.75 23.125 Z M 33.125 25 C 32.78125 25 32.5 25.28125 32.5 25.625 C 32.5 25.96875 32.78125 26.25 33.125 26.25 C 33.46875 26.25 33.75 25.96875 33.75 25.625 C 33.75 25.28125 33.46875 25 33.125 25 Z M 36.875 25 C 36.53125 25 36.25 25.28125 36.25 25.625 C 36.25 25.96875 36.53125 26.25 36.875 26.25 C 37.21875 26.25 37.5 25.96875 37.5 25.625 C 37.5 25.28125 37.21875 25 36.875 25 Z M 40.625 25 C 40.28125 25 40 25.28125 40 25.625 C 40 25.96875 40.28125 26.25 40.625 26.25 C 40.96875 26.25 41.25 25.96875 41.25 25.625 C 41.25 25.28125 40.96875 25 40.625 25 Z M 27.5 26.875 C 27.15625 26.875 26.875 27.15625 26.875 27.5 C 26.875 27.84375 27.15625 28.125 27.5 28.125 C 27.84375 28.125 28.125 27.84375 28.125 27.5 C 28.125 27.15625 27.84375 26.875 27.5 26.875 Z M 31.25 26.875 C 30.90625 26.875 30.625 27.15625 30.625 27.5 C 30.625 27.84375 30.90625 28.125 31.25 28.125 C 31.59375 28.125 31.875 27.84375 31.875 27.5 C 31.875 27.15625 31.59375 26.875 31.25 26.875 Z M 35 26.875 C 34.65625 26.875 34.375 27.15625 34.375 27.5 C 34.375 27.84375 34.65625 28.125 35 28.125 C 35.34375 28.125 35.625 27.84375 35.625 27.5 C 35.625 27.15625 35.34375 26.875 35 26.875 Z M 38.75 26.875 C 38.40625 26.875 38.125 27.15625 38.125 27.5 C 38.125 27.84375 38.40625 28.125 38.75 28.125 C 39.09375 28.125 39.375 27.84375 39.375 27.5 C 39.375 27.15625 39.09375 26.875 38.75 26.875 Z M 25.625 28.75 C 25.28125 28.75 25 29.03125 25 29.375 C 25 29.71875 25.28125 30 25.625 30 C 25.96875 30 26.25 29.71875 26.25 29.375 C 26.25 29.03125 25.96875 28.75 25.625 28.75 Z M 29.375 28.75 C 29.03125 28.75 28.75 29.03125 28.75 29.375 C 28.75 29.71875 29.03125 30 29.375 30 C 29.71875 30 30 29.71875 30 29.375 C 30 29.03125 29.71875 28.75 29.375 28.75 Z M 33.125 28.75 C 32.78125 28.75 32.5 29.03125 32.5 29.375 C 32.5 29.71875 32.78125 30 33.125 30 C 33.46875 30 33.75 29.71875 33.75 29.375 C 33.75 29.03125 33.46875 28.75 33.125 28.75 Z M 36.875 28.75 C 36.53125 28.75 36.25 29.03125 36.25 29.375 C 36.25 29.71875 36.53125 30 36.875 30 C 37.21875 30 37.5 29.71875 37.5 29.375 C 37.5 29.03125 37.21875 28.75 36.875 28.75 Z M 40.625 28.75 C 40.28125 28.75 40 29.03125 40 29.375 C 40 29.71875 40.28125 30 40.625 30 C 40.96875 30 41.25 29.71875 41.25 29.375 C 41.25 29.03125 40.96875 28.75 40.625 28.75 Z M 20 30.625 C 19.65625 30.625 19.375 30.90625 19.375 31.25 C 19.375 31.59375 19.65625 31.875 20 31.875 C 20.34375 31.875 20.625 31.59375 20.625 31.25 C 20.625 30.90625 20.34375 30.625 20 30.625 Z M 23.75 30.625 C 23.40625 30.625 23.125 30.90625 23.125 31.25 C 23.125 31.59375 23.40625 31.875 23.75 31.875 C 24.09375 31.875 24.375 31.59375 24.375 31.25 C 24.375 30.90625 24.09375 30.625 23.75 30.625 Z M 27.5 30.625 C 27.15625 30.625 26.875 30.90625 26.875 31.25 C 26.875 31.59375 27.15625 31.875 27.5 31.875 C 27.84375 31.875 28.125 31.59375 28.125 31.25 C 28.125 30.90625 27.84375 30.625 27.5 30.625 Z M 31.25 30.625 C 30.90625 30.625 30.625 30.90625 30.625 31.25 C 30.625 31.59375 30.90625 31.875 31.25 31.875 C 31.59375 31.875 31.875 31.59375 31.875 31.25 C 31.875 30.90625 31.59375 30.625 31.25 30.625 Z M 35 30.625 C 34.65625 30.625 34.375 30.90625 34.375 31.25 C 34.375 31.59375 34.65625 31.875 35 31.875 C 35.34375 31.875 35.625 31.59375 35.625 31.25 C 35.625 30.90625 35.34375 30.625 35 30.625 Z M 38.75 30.625 C 38.40625 30.625 38.125 30.90625 38.125 31.25 C 38.125 31.59375 38.40625 31.875 38.75 31.875 C 39.09375 31.875 39.375 31.59375 39.375 31.25 C 39.375 30.90625 39.09375 30.625 38.75 30.625 Z M 42.5 30.625 C 42.15625 30.625 41.875 30.90625 41.875 31.25 C 41.875 31.59375 42.15625 31.875 42.5 31.875 C 42.84375 31.875 43.125 31.59375 43.125 31.25 C 43.125 30.90625 42.84375 30.625 42.5 30.625 Z M 21.875 32.5 C 21.53125 32.5 21.25 32.78125 21.25 33.125 C 21.25 33.46875 21.53125 33.75 21.875 33.75 C 22.21875 33.75 22.5 33.46875 22.5 33.125 C 22.5 32.78125 22.21875 32.5 21.875 32.5 Z M 25.625 32.5 C 25.28125 32.5 25 32.78125 25 33.125 C 25 33.46875 25.28125 33.75 25.625 33.75 C 25.96875 33.75 26.25 33.46875 26.25 33.125 C 26.25 32.78125 25.96875 32.5 25.625 32.5 Z M 29.375 32.5 C 29.03125 32.5 28.75 32.78125 28.75 33.125 C 28.75 33.46875 29.03125 33.75 29.375 33.75 C 29.71875 33.75 30 33.46875 30 33.125 C 30 32.78125 29.71875 32.5 29.375 32.5 Z M 33.125 32.5 C 32.78125 32.5 32.5 32.78125 32.5 33.125 C 32.5 33.46875 32.78125 33.75 33.125 33.75 C 33.46875 33.75 33.75 33.46875 33.75 33.125 C 33.75 32.78125 33.46875 32.5 33.125 32.5 Z M 36.875 32.5 C 36.53125 32.5 36.25 32.78125 36.25 33.125 C 36.25 33.46875 36.53125 33.75 36.875 33.75 C 37.21875 33.75 37.5 33.46875 37.5 33.125 C 37.5 32.78125 37.21875 32.5 36.875 32.5 Z M 40.625 32.5 C 40.28125 32.5 40 32.78125 40 33.125 C 40 33.46875 40.28125 33.75 40.625 33.75 C 40.96875 33.75 41.25 33.46875 41.25 33.125 C 41.25 32.78125 40.96875 32.5 40.625 32.5 Z M 20 34.375 C 19.65625 34.375 19.375 34.65625 19.375 35 C 19.375 35.34375 19.65625 35.625 20 35.625 C 20.34375 35.625 20.625 35.34375 20.625 35 C 20.625 34.65625 20.34375 34.375 20 34.375 Z M 23.75 34.375 C 23.40625 34.375 23.125 34.65625 23.125 35 C 23.125 35.34375 23.40625 35.625 23.75 35.625 C 24.09375 35.625 24.375 35.34375 24.375 35 C 24.375 34.65625 24.09375 34.375 23.75 34.375 Z M 27.5 34.375 C 27.15625 34.375 26.875 34.65625 26.875 35 C 26.875 35.34375 27.15625 35.625 27.5 35.625 C 27.84375 35.625 28.125 35.34375 28.125 35 C 28.125 34.65625 27.84375 34.375 27.5 34.375 Z M 31.25 34.375 C 30.90625 34.375 30.625 34.65625 30.625 35 C 30.625 35.34375 30.90625 35.625 31.25 35.625 C 31.59375 35.625 31.875 35.34375 31.875 35 C 31.875 34.65625 31.59375 34.375 31.25 34.375 Z M 35 34.375 C 34.65625 34.375 34.375 34.65625 34.375 35 C 34.375 35.34375 34.65625 35.625 35 35.625 C 35.34375 35.625 35.625 35.34375 35.625 35 C 35.625 34.65625 35.34375 34.375 35 34.375 Z M 38.75 34.375 C 38.40625 34.375 38.125 34.65625 38.125 35 C 38.125 35.34375 38.40625 35.625 38.75 35.625 C 39.09375 35.625 39.375 35.34375 39.375 35 C 39.375 34.65625 39.09375 34.375 38.75 34.375 Z M 42.5 34.375 C 42.15625 34.375 41.875 34.65625 41.875 35 C 41.875 35.34375 42.15625 35.625 42.5 35.625 C 42.84375 35.625 43.125 35.34375 43.125 35 C 43.125 34.65625 42.84375 34.375 42.5 34.375 Z M 21.875 36.25 C 21.53125 36.25 21.25 36.53125 21.25 36.875 C 21.25 37.21875 21.53125 37.5 21.875 37.5 C 22.21875 37.5 22.5 37.21875 22.5 36.875 C 22.5 36.53125 22.21875 36.25 21.875 36.25 Z M 25.625 36.25 C 25.28125 36.25 25 36.53125 25 36.875 C 25 37.21875 25.28125 37.5 25.625 37.5 C 25.96875 37.5 26.25 37.21875 26.25 36.875 C 26.25 36.53125 25.96875 36.25 25.625 36.25 Z M 29.375 36.25 C 29.03125 36.25 28.75 36.53125 28.75 36.875 C 28.75 37.21875 29.03125 37.5 29.375 37.5 C 29.71875 37.5 30 37.21875 30 36.875 C 30 36.53125 29.71875 36.25 29.375 36.25 Z M 33.125 36.25 C 32.78125 36.25 32.5 36.53125 32.5 36.875 C 32.5 37.21875 32.78125 37.5 33.125 37.5 C 33.46875 37.5 33.75 37.21875 33.75 36.875 C 33.75 36.53125 33.46875 36.25 33.125 36.25 Z M 36.875 36.25 C 36.53125 36.25 36.25 36.53125 36.25 36.875 C 36.25 37.21875 36.53125 37.5 36.875 37.5 C 37.21875 37.5 37.5 37.21875 37.5 36.875 C 37.5 36.53125 37.21875 36.25 36.875 36.25 Z M 40.625 36.25 C 40.28125 36.25 40 36.53125 40 36.875 C 40 37.21875 40.28125 37.5 40.625 37.5 C 40.96875 37.5 41.25 37.21875 41.25 36.875 C 41.25 36.53125 40.96875 36.25 40.625 36.25 Z M 23.75 38.125 C 23.40625 38.125 23.125 38.40625 23.125 38.75 C 23.125 39.09375 23.40625 39.375 23.75 39.375 C 24.09375 39.375 24.375 39.09375 24.375 38.75 C 24.375 38.40625 24.09375 38.125 23.75 38.125 Z M 27.5 38.125 C 27.15625 38.125 26.875 38.40625 26.875 38.75 C 26.875 39.09375 27.15625 39.375 27.5 39.375 C 27.84375 39.375 28.125 39.09375 28.125 38.75 C 28.125 38.40625 27.84375 38.125 27.5 38.125 Z M 31.25 38.125 C 30.90625 38.125 30.625 38.40625 30.625 38.75 C 30.625 39.09375 30.90625 39.375 31.25 39.375 C 31.59375 39.375 31.875 39.09375 31.875 38.75 C 31.875 38.40625 31.59375 38.125 31.25 38.125 Z M 35 38.125 C 34.65625 38.125 34.375 38.40625 34.375 38.75 C 34.375 39.09375 34.65625 39.375 35 39.375 C 35.34375 39.375 35.625 39.09375 35.625 38.75 C 35.625 38.40625 35.34375 38.125 35 38.125 Z M 38.75 38.125 C 38.40625 38.125 38.125 38.40625 38.125 38.75 C 38.125 39.09375 38.40625 39.375 38.75 39.375 C 39.09375 39.375 39.375 39.09375 39.375 38.75 C 39.375 38.40625 39.09375 38.125 38.75 38.125 Z M 25.625 40 C 25.28125 40 25 40.28125 25 40.625 C 25 40.96875 25.28125 41.25 25.625 41.25 C 25.96875 41.25 26.25 40.96875 26.25 40.625 C 26.25 40.28125 25.96875 40 25.625 40 Z M 29.375 40 C 29.03125 40 28.75 40.28125 28.75 40.625 C 28.75 40.96875 29.03125 41.25 29.375 41.25 C 29.71875 41.25 30 40.96875 30 40.625 C 30 40.28125 29.71875 40 29.375 40 Z M 33.125 40 C 32.78125 40 32.5 40.28125 32.5 40.625 C 32.5 40.96875 32.78125 41.25 33.125 41.25 C 33.46875 41.25 33.75 40.96875 33.75 40.625 C 33.75 40.28125 33.46875 40 33.125 40 Z M 36.875 40 C 36.53125 40 36.25 40.28125 36.25 40.625 C 36.25 40.96875 36.53125 41.25 36.875 41.25 C 37.21875 41.25 37.5 40.96875 37.5 40.625 C 37.5 40.28125 37.21875 40 36.875 40 Z M 38.75 41.875 C 38.40625 41.875 38.125 42.15625 38.125 42.5 C 38.125 42.84375 38.40625 43.125 38.75 43.125 C 39.09375 43.125 39.375 42.84375 39.375 42.5 C 39.375 42.15625 39.09375 41.875 38.75 41.875 Z M 38.75 41.875 "/>
</g>
</svg>
