<?xml version="1.0" encoding="UTF-8"?>
<svg xmlns="http://www.w3.org/2000/svg" xmlns:xlink="http://www.w3.org/1999/xlink" width="50pt" height="50pt" viewBox="0 0 50 50" version="1.1">
<g id="surface5941903">
<path style=" stroke:none;fill-rule:nonzero;fill:rgb(254, 226, 252);fill-opacity:1;" d="M 25 4.375 C 13.617188 4.375 4.375 13.617188 4.375 25 C 4.375 36.382812 13.617188 45.625 25 45.625 C 36.382812 45.625 45.625 36.382812 45.625 25 C 45.625 13.617188 36.382812 4.375 25 4.375 Z M 25 5.625 C 35.707031 5.625 44.375 14.292969 44.375 25 C 44.375 35.707031 35.707031 44.375 25 44.375 C 14.292969 44.375 5.625 35.707031 5.625 25 C 5.625 14.292969 14.292969 5.625 25 5.625 Z M 25 7.5 C 24.65625 7.5 24.375 7.78125 24.375 8.125 C 24.375 8.46875 24.65625 8.75 25 8.75 C 25.34375 8.75 25.625 8.46875 25.625 8.125 C 25.625 7.78125 25.34375 7.5 25 7.5 Z M 28.308594 7.820312 C 28.003906 7.816406 27.738281 8.027344 27.679688 8.328125 C 27.613281 8.664062 27.832031 8.996094 28.171875 9.0625 C 28.507812 9.128906 28.839844 8.910156 28.90625 8.570312 C 28.972656 8.230469 28.753906 7.902344 28.414062 7.835938 C 28.378906 7.828125 28.34375 7.824219 28.308594 7.820312 Z M 21.710938 7.824219 C 21.667969 7.824219 21.628906 7.828125 21.585938 7.835938 C 21.246094 7.902344 21.027344 8.234375 21.097656 8.570312 C 21.128906 8.734375 21.222656 8.878906 21.363281 8.96875 C 21.5 9.058594 21.667969 9.09375 21.832031 9.0625 C 22.171875 8.996094 22.390625 8.667969 22.320312 8.328125 C 22.261719 8.039062 22.007812 7.828125 21.710938 7.824219 Z M 18.546875 8.785156 C 18.464844 8.785156 18.382812 8.796875 18.304688 8.832031 C 17.984375 8.964844 17.832031 9.328125 17.964844 9.648438 C 18.097656 9.96875 18.460938 10.121094 18.78125 9.988281 C 19.101562 9.855469 19.253906 9.488281 19.121094 9.171875 C 19.023438 8.9375 18.796875 8.785156 18.546875 8.785156 Z M 31.472656 8.785156 C 31.214844 8.777344 30.980469 8.929688 30.878906 9.167969 C 30.746094 9.488281 30.898438 9.851562 31.21875 9.988281 C 31.539062 10.121094 31.902344 9.96875 32.035156 9.648438 C 32.167969 9.328125 32.015625 8.964844 31.695312 8.832031 C 31.625 8.800781 31.546875 8.785156 31.472656 8.785156 Z M 15.632812 10.339844 C 15.503906 10.339844 15.382812 10.378906 15.277344 10.449219 C 14.992188 10.640625 14.914062 11.027344 15.105469 11.316406 C 15.296875 11.601562 15.683594 11.679688 15.972656 11.488281 C 16.261719 11.296875 16.335938 10.910156 16.144531 10.621094 C 16.03125 10.449219 15.835938 10.34375 15.632812 10.34375 Z M 34.382812 10.339844 C 34.171875 10.339844 33.972656 10.445312 33.855469 10.621094 C 33.660156 10.90625 33.742188 11.296875 34.027344 11.488281 C 34.3125 11.679688 34.703125 11.601562 34.890625 11.316406 C 34.984375 11.179688 35.019531 11.007812 34.988281 10.847656 C 34.957031 10.683594 34.859375 10.539062 34.722656 10.449219 C 34.621094 10.378906 34.507812 10.34375 34.382812 10.339844 Z M 13.078125 12.441406 C 12.90625 12.441406 12.746094 12.507812 12.628906 12.628906 C 12.382812 12.867188 12.382812 13.265625 12.628906 13.507812 C 12.867188 13.753906 13.265625 13.753906 13.507812 13.507812 C 13.753906 13.265625 13.753906 12.867188 13.507812 12.628906 C 13.394531 12.507812 13.238281 12.445312 13.078125 12.441406 Z M 36.941406 12.441406 C 36.773438 12.441406 36.609375 12.507812 36.492188 12.628906 C 36.246094 12.867188 36.246094 13.265625 36.492188 13.507812 C 36.734375 13.753906 37.132812 13.753906 37.371094 13.507812 C 37.617188 13.265625 37.617188 12.867188 37.371094 12.628906 C 37.257812 12.507812 37.105469 12.445312 36.941406 12.441406 Z M 39.039062 15 C 38.910156 14.996094 38.789062 15.035156 38.683594 15.105469 C 38.398438 15.296875 38.320312 15.683594 38.511719 15.96875 C 38.703125 16.257812 39.089844 16.335938 39.378906 16.140625 C 39.664062 15.949219 39.742188 15.5625 39.550781 15.277344 C 39.4375 15.105469 39.242188 15 39.039062 15 Z M 10.980469 15 C 10.765625 14.996094 10.566406 15.101562 10.449219 15.277344 C 10.257812 15.5625 10.335938 15.953125 10.621094 16.140625 C 10.910156 16.335938 11.296875 16.257812 11.488281 15.972656 C 11.679688 15.683594 11.605469 15.296875 11.316406 15.105469 C 11.214844 15.039062 11.101562 15.003906 10.980469 15 Z M 21.25 15.625 C 20.355469 15.625 19.652344 16.164062 19.214844 16.875 L 15.625 16.875 L 15.625 18.125 L 19.933594 18.125 L 20.078125 17.707031 C 20.25 17.222656 20.703125 16.875 21.25 16.875 L 32.1875 16.875 C 32.710938 16.875 33.125 17.289062 33.125 17.8125 C 33.125 18.289062 32.933594 18.429688 32.667969 18.574219 C 32.40625 18.722656 32.128906 18.753906 32.128906 18.753906 L 32.1875 20 L 32.8125 20 C 33.335938 20 33.75 20.414062 33.75 20.9375 C 33.75 21.339844 33.558594 21.503906 33.277344 21.667969 C 33 21.832031 32.710938 21.886719 32.710938 21.886719 L 32.8125 23.125 L 33.4375 23.125 C 33.96875 23.125 34.375 23.527344 34.375 24.0625 C 34.375 24.464844 34.183594 24.628906 33.902344 24.792969 C 33.625 24.953125 33.332031 25.011719 33.332031 25.011719 L 33.4375 26.25 L 34.0625 26.25 C 34.585938 26.25 35 26.664062 35 27.1875 C 35 27.710938 34.585938 28.125 34.0625 28.125 L 24.886719 28.125 L 25.011719 28.851562 C 25.011719 28.851562 25.164062 29.789062 25.320312 30.808594 C 25.398438 31.316406 25.472656 31.847656 25.53125 32.285156 C 25.589844 32.722656 25.625 33.109375 25.625 33.175781 C 25.625 34.058594 25.316406 35.046875 24.84375 35.761719 C 24.371094 36.480469 23.785156 36.875 23.289062 36.875 L 23.125 36.875 L 23.125 33.605469 L 19.816406 26.875 L 15.625 26.875 L 15.625 28.125 L 19.039062 28.125 L 21.875 33.898438 L 21.875 38.125 L 23.289062 38.125 C 24.382812 38.125 25.277344 37.382812 25.890625 36.449219 C 26.5 35.515625 26.875 34.339844 26.875 33.175781 C 26.875 32.914062 26.832031 32.574219 26.773438 32.121094 C 26.714844 31.667969 26.632812 31.132812 26.554688 30.617188 C 26.457031 29.972656 26.417969 29.742188 26.359375 29.375 L 34.0625 29.375 C 35.265625 29.375 36.25 28.390625 36.25 27.1875 C 36.25 26.382812 35.785156 25.699219 35.128906 25.324219 C 35.402344 24.996094 35.625 24.597656 35.625 24.0625 C 35.625 23.253906 35.160156 22.574219 34.503906 22.199219 C 34.777344 21.871094 35 21.472656 35 20.9375 C 35 20.140625 34.546875 19.46875 33.90625 19.089844 C 34.167969 18.757812 34.375 18.351562 34.375 17.8125 C 34.375 16.613281 33.390625 15.625 32.1875 15.625 Z M 40.597656 17.917969 C 40.511719 17.914062 40.429688 17.933594 40.351562 17.964844 C 40.03125 18.097656 39.878906 18.460938 40.011719 18.777344 C 40.144531 19.097656 40.511719 19.25 40.828125 19.117188 C 41.148438 18.988281 41.300781 18.621094 41.167969 18.300781 C 41.070312 18.070312 40.847656 17.917969 40.597656 17.917969 Z M 9.421875 17.917969 C 9.164062 17.914062 8.929688 18.0625 8.832031 18.304688 C 8.699219 18.621094 8.851562 18.988281 9.167969 19.121094 C 9.488281 19.253906 9.855469 19.101562 9.988281 18.78125 C 10.121094 18.460938 9.96875 18.097656 9.648438 17.964844 C 9.578125 17.933594 9.5 17.917969 9.421875 17.917969 Z M 41.554688 21.085938 C 41.511719 21.082031 41.46875 21.085938 41.429688 21.09375 C 41.089844 21.160156 40.871094 21.492188 40.9375 21.828125 C 41.003906 22.167969 41.335938 22.386719 41.671875 22.320312 C 42.011719 22.253906 42.230469 21.921875 42.164062 21.585938 C 42.105469 21.292969 41.851562 21.082031 41.554688 21.082031 Z M 8.464844 21.085938 C 8.160156 21.078125 7.898438 21.285156 7.835938 21.585938 C 7.804688 21.75 7.835938 21.917969 7.929688 22.054688 C 8.023438 22.195312 8.167969 22.289062 8.328125 22.320312 C 8.492188 22.355469 8.660156 22.320312 8.796875 22.230469 C 8.933594 22.136719 9.03125 21.992188 9.0625 21.828125 C 9.128906 21.492188 8.910156 21.160156 8.574219 21.09375 C 8.539062 21.089844 8.503906 21.085938 8.464844 21.085938 Z M 8.125 24.375 C 7.78125 24.375 7.5 24.65625 7.5 25 C 7.5 25.34375 7.78125 25.625 8.125 25.625 C 8.46875 25.625 8.75 25.34375 8.75 25 C 8.75 24.65625 8.46875 24.375 8.125 24.375 Z M 41.875 24.375 C 41.53125 24.375 41.25 24.65625 41.25 25 C 41.25 25.34375 41.53125 25.625 41.875 25.625 C 42.21875 25.625 42.5 25.34375 42.5 25 C 42.5 24.65625 42.21875 24.375 41.875 24.375 Z M 8.453125 27.664062 C 8.410156 27.664062 8.367188 27.671875 8.328125 27.679688 C 7.988281 27.746094 7.769531 28.078125 7.835938 28.414062 C 7.90625 28.753906 8.230469 28.972656 8.570312 28.90625 C 8.910156 28.839844 9.128906 28.507812 9.0625 28.171875 C 9.003906 27.878906 8.75 27.667969 8.453125 27.667969 Z M 41.566406 27.664062 C 41.261719 27.660156 41 27.871094 40.9375 28.171875 C 40.871094 28.507812 41.089844 28.839844 41.429688 28.90625 C 41.769531 28.972656 42.097656 28.753906 42.164062 28.414062 C 42.230469 28.074219 42.011719 27.746094 41.671875 27.679688 C 41.636719 27.671875 41.605469 27.667969 41.566406 27.664062 Z M 40.605469 30.828125 C 40.347656 30.824219 40.113281 30.980469 40.011719 31.21875 C 39.878906 31.535156 40.03125 31.902344 40.351562 32.035156 C 40.671875 32.164062 41.035156 32.015625 41.167969 31.695312 C 41.300781 31.375 41.148438 31.011719 40.832031 30.878906 C 40.757812 30.847656 40.679688 30.832031 40.605469 30.828125 Z M 9.414062 30.832031 C 9.332031 30.832031 9.246094 30.847656 9.167969 30.878906 C 9.019531 30.941406 8.894531 31.066406 8.832031 31.21875 C 8.769531 31.371094 8.769531 31.542969 8.832031 31.695312 C 8.964844 32.015625 9.328125 32.167969 9.648438 32.035156 C 9.800781 31.972656 9.925781 31.851562 9.988281 31.695312 C 10.050781 31.542969 10.050781 31.371094 9.988281 31.21875 C 9.890625 30.988281 9.664062 30.835938 9.414062 30.832031 Z M 39.042969 33.75 C 38.832031 33.746094 38.628906 33.851562 38.511719 34.027344 C 38.320312 34.3125 38.398438 34.699219 38.683594 34.890625 C 38.820312 34.984375 38.992188 35.019531 39.152344 34.984375 C 39.316406 34.953125 39.460938 34.859375 39.550781 34.71875 C 39.742188 34.433594 39.664062 34.046875 39.378906 33.855469 C 39.28125 33.785156 39.164062 33.75 39.042969 33.75 Z M 10.976562 33.75 C 10.847656 33.746094 10.726562 33.785156 10.621094 33.855469 C 10.335938 34.046875 10.257812 34.433594 10.449219 34.722656 C 10.640625 35.007812 11.03125 35.085938 11.316406 34.890625 C 11.605469 34.703125 11.683594 34.3125 11.488281 34.027344 C 11.375 33.855469 11.179688 33.753906 10.976562 33.75 Z M 13.078125 36.308594 C 12.90625 36.304688 12.746094 36.371094 12.628906 36.492188 C 12.382812 36.734375 12.382812 37.132812 12.628906 37.371094 C 12.867188 37.617188 13.265625 37.617188 13.507812 37.371094 C 13.753906 37.132812 13.753906 36.734375 13.507812 36.492188 C 13.394531 36.375 13.238281 36.308594 13.078125 36.308594 Z M 36.941406 36.308594 C 36.773438 36.304688 36.609375 36.371094 36.492188 36.492188 C 36.246094 36.734375 36.246094 37.132812 36.492188 37.371094 C 36.734375 37.617188 37.132812 37.617188 37.371094 37.371094 C 37.617188 37.132812 37.617188 36.734375 37.371094 36.492188 C 37.257812 36.375 37.105469 36.308594 36.941406 36.308594 Z M 15.636719 38.40625 C 15.425781 38.402344 15.226562 38.503906 15.109375 38.679688 C 14.914062 38.96875 14.992188 39.359375 15.28125 39.550781 C 15.566406 39.742188 15.953125 39.664062 16.144531 39.378906 C 16.339844 39.089844 16.257812 38.703125 15.972656 38.511719 C 15.875 38.445312 15.757812 38.40625 15.636719 38.40625 Z M 34.382812 38.40625 C 34.253906 38.402344 34.132812 38.441406 34.027344 38.507812 C 33.890625 38.601562 33.792969 38.746094 33.761719 38.910156 C 33.730469 39.070312 33.765625 39.242188 33.859375 39.378906 C 34.046875 39.664062 34.4375 39.742188 34.722656 39.550781 C 35.007812 39.359375 35.089844 38.96875 34.894531 38.683594 C 34.78125 38.511719 34.589844 38.40625 34.382812 38.40625 Z M 18.558594 39.964844 C 18.296875 39.957031 18.0625 40.113281 17.964844 40.351562 C 17.835938 40.667969 17.984375 41.035156 18.304688 41.167969 C 18.621094 41.296875 18.988281 41.148438 19.121094 40.828125 C 19.253906 40.511719 19.101562 40.144531 18.78125 40.011719 C 18.710938 39.984375 18.636719 39.964844 18.558594 39.964844 Z M 31.460938 39.964844 C 31.378906 39.964844 31.296875 39.980469 31.222656 40.011719 C 31.066406 40.074219 30.945312 40.199219 30.882812 40.347656 C 30.816406 40.503906 30.816406 40.675781 30.878906 40.828125 C 31.011719 41.148438 31.378906 41.296875 31.695312 41.167969 C 31.851562 41.101562 31.972656 40.980469 32.035156 40.828125 C 32.101562 40.675781 32.101562 40.503906 32.035156 40.351562 C 31.941406 40.117188 31.714844 39.964844 31.460938 39.964844 Z M 21.726562 40.925781 C 21.421875 40.917969 21.15625 41.128906 21.097656 41.429688 C 21.027344 41.765625 21.246094 42.09375 21.585938 42.164062 C 21.925781 42.230469 22.253906 42.011719 22.320312 41.671875 C 22.390625 41.332031 22.171875 41.003906 21.832031 40.9375 C 21.796875 40.929688 21.761719 40.925781 21.726562 40.925781 Z M 28.292969 40.929688 C 28.253906 40.925781 28.210938 40.929688 28.171875 40.9375 C 27.832031 41.003906 27.613281 41.332031 27.679688 41.671875 C 27.710938 41.835938 27.808594 41.976562 27.945312 42.070312 C 28.082031 42.164062 28.253906 42.195312 28.414062 42.164062 C 28.578125 42.132812 28.71875 42.035156 28.8125 41.898438 C 28.902344 41.761719 28.9375 41.589844 28.90625 41.429688 C 28.847656 41.136719 28.589844 40.925781 28.292969 40.925781 Z M 25 41.25 C 24.65625 41.25 24.375 41.53125 24.375 41.875 C 24.375 42.21875 24.65625 42.5 25 42.5 C 25.34375 42.5 25.625 42.21875 25.625 41.875 C 25.625 41.53125 25.34375 41.25 25 41.25 Z M 25 41.25 "/>
</g>
</svg>
