<?xml version="1.0" encoding="UTF-8"?>
<svg xmlns="http://www.w3.org/2000/svg" xmlns:xlink="http://www.w3.org/1999/xlink" width="50pt" height="50pt" viewBox="0 0 50 50" version="1.1">
<g id="surface5800048">
<path style=" stroke:none;fill-rule:nonzero;fill:rgb(254, 226, 252);fill-opacity:1;" d="M 29.222656 3.792969 C 26.714844 3.894531 24.476562 4.902344 23.03125 6.550781 C 21.636719 8.140625 21.046875 10.351562 21.644531 12.75 L 20.730469 14.699219 C 18.476562 14.824219 15.015625 15.3125 12.113281 17.402344 C 9.074219 19.59375 6.835938 23.554688 7.6875 30.15625 L 7.710938 30.839844 L 7.710938 30.890625 C 6.566406 31.210938 5.480469 31.746094 4.660156 32.628906 C 3.714844 33.636719 3.125 35.046875 3.125 36.777344 C 3.125 39.101562 4.535156 41.214844 6.746094 42.304688 C 7.839844 42.84375 9.046875 43.105469 10.300781 43.105469 C 12.8125 43.105469 15.503906 42.070312 18.019531 40.136719 C 18.832031 39.511719 18.988281 38.324219 18.359375 37.507812 C 17.734375 36.695312 16.546875 36.535156 15.730469 37.167969 C 12.980469 39.277344 10.234375 39.84375 8.402344 38.941406 C 7.425781 38.457031 6.875 37.617188 6.875 36.777344 C 6.875 35.691406 7.257812 35.214844 7.785156 34.875 C 8.3125 34.539062 9.046875 34.414062 9.625 34.375 L 33.125 34.375 L 33.125 41.25 C 33.121094 41.476562 33.238281 41.683594 33.433594 41.796875 C 33.628906 41.914062 33.871094 41.914062 34.066406 41.796875 C 34.257812 41.683594 34.378906 41.476562 34.375 41.25 L 34.375 33.855469 C 34.410156 33.652344 34.339844 33.441406 34.191406 33.300781 C 34.191406 33.300781 34.191406 33.296875 34.191406 33.296875 C 34.191406 33.296875 34.1875 33.296875 34.1875 33.292969 C 34.183594 33.292969 34.183594 33.292969 34.183594 33.289062 C 34.0625 33.175781 33.90625 33.113281 33.738281 33.117188 C 33.710938 33.117188 33.679688 33.121094 33.648438 33.125 L 30.324219 33.125 C 30.277344 32.875 30.203125 32.589844 30.054688 32.289062 C 29.753906 31.667969 29.027344 31.105469 28.027344 30.90625 C 27.601562 29.4375 27.433594 27.078125 27.378906 25.679688 C 27.519531 25.714844 27.652344 25.753906 27.804688 25.789062 C 28.410156 25.914062 29.09375 26.019531 29.773438 26.109375 C 31.125 26.289062 32.503906 26.425781 32.886719 26.511719 C 33.125 26.5625 33.28125 26.765625 33.402344 27.0625 C 33.523438 27.359375 33.550781 27.644531 33.550781 27.644531 L 33.554688 27.695312 L 33.570312 27.746094 C 33.832031 28.730469 34.792969 29.210938 35.679688 29.246094 C 36.566406 29.28125 37.53125 28.933594 38.035156 28.082031 L 38.183594 27.835938 L 38.09375 27.5625 C 38.09375 27.5625 37.070312 24.175781 34.378906 23.226562 C 32.476562 22.554688 29.273438 20.476562 28.734375 20.125 C 28.601562 19.300781 28.304688 18.535156 27.902344 17.839844 L 28.324219 16.90625 C 29.464844 16.84375 30.574219 16.570312 31.449219 15.964844 C 32.4375 15.28125 33.128906 14.175781 33.128906 12.816406 C 33.128906 12.378906 32.960938 11.972656 32.726562 11.730469 C 32.492188 11.488281 32.285156 11.390625 32.132812 11.277344 C 31.828125 11.054688 31.527344 10.800781 31.347656 9.425781 C 31.222656 8.476562 30.691406 7.734375 30.035156 7.226562 C 29.609375 6.898438 29.113281 6.769531 28.632812 6.59375 L 29.777344 4.75 C 29.902344 4.550781 29.90625 4.304688 29.789062 4.105469 C 29.671875 3.902344 29.453125 3.785156 29.222656 3.792969 Z M 27.9375 5.347656 L 27.199219 6.53125 C 27.09375 6.699219 27.078125 6.914062 27.152344 7.097656 C 27.230469 7.285156 27.394531 7.421875 27.589844 7.46875 C 28.191406 7.609375 28.8125 7.863281 29.273438 8.21875 C 29.730469 8.574219 30.03125 8.996094 30.109375 9.585938 C 30.3125 11.167969 30.898438 11.917969 31.386719 12.28125 C 31.628906 12.464844 31.792969 12.5625 31.828125 12.601562 C 31.867188 12.640625 31.878906 12.601562 31.878906 12.816406 C 31.878906 13.777344 31.457031 14.4375 30.738281 14.933594 C 30.019531 15.433594 28.984375 15.714844 27.898438 15.710938 C 27.648438 15.710938 27.425781 15.855469 27.324219 16.082031 L 26.648438 17.585938 C 26.558594 17.78125 26.578125 18.007812 26.695312 18.1875 C 27.238281 19.003906 27.558594 19.976562 27.558594 21.03125 C 27.558594 22.347656 27.0625 23.535156 26.253906 24.445312 C 26.148438 24.5625 26.09375 24.714844 26.09375 24.871094 C 26.113281 26.03125 26.191406 29.46875 26.886719 31.566406 C 26.972656 31.820312 27.210938 31.992188 27.480469 31.992188 C 28.414062 31.992188 28.710938 32.382812 28.929688 32.832031 C 28.996094 32.972656 28.96875 32.992188 29 33.125 L 26.328125 33.125 C 24.632812 30.484375 23.925781 28.046875 23.671875 26.632812 C 23.613281 26.3125 23.320312 26.089844 22.992188 26.121094 C 23.035156 26.117188 21.808594 26.167969 21.132812 26.191406 C 21.136719 26.136719 21.144531 26.085938 21.132812 26.03125 C 21.054688 25.6875 20.726562 25.472656 20.394531 25.542969 C 20.050781 25.613281 19.835938 25.949219 19.90625 26.289062 C 19.929688 26.390625 19.980469 26.476562 20.042969 26.550781 C 19.996094 26.636719 19.972656 26.738281 19.972656 26.835938 C 19.972656 28.910156 18.660156 29.808594 18.34375 30 L 15.625 30 C 15.398438 29.996094 15.191406 30.113281 15.078125 30.308594 C 14.960938 30.503906 14.960938 30.746094 15.078125 30.941406 C 15.191406 31.132812 15.398438 31.253906 15.625 31.25 L 18.421875 31.25 C 18.453125 31.253906 18.488281 31.257812 18.519531 31.257812 L 19.375 31.25 C 19.949219 31.25 20.570312 31.550781 21.035156 32.035156 C 21.339844 32.347656 21.53125 32.734375 21.652344 33.125 L 9.589844 33.125 C 9.574219 33.125 9.5625 33.125 9.546875 33.125 C 8.875 33.171875 7.941406 33.296875 7.113281 33.824219 C 6.285156 34.351562 5.625 35.34375 5.625 36.777344 C 5.625 38.15625 6.515625 39.402344 7.851562 40.0625 C 10.289062 41.265625 13.511719 40.449219 16.492188 38.15625 C 16.492188 38.15625 16.492188 38.15625 16.496094 38.15625 C 16.773438 37.941406 17.15625 37.992188 17.371094 38.269531 C 17.585938 38.550781 17.535156 38.933594 17.257812 39.148438 C 14.917969 40.945312 12.464844 41.855469 10.300781 41.855469 C 9.21875 41.855469 8.210938 41.632812 7.296875 41.183594 C 5.472656 40.285156 4.375 38.59375 4.375 36.777344 C 4.375 35.320312 4.839844 34.265625 5.574219 33.480469 C 6.304688 32.691406 7.332031 32.179688 8.46875 31.9375 C 8.753906 31.875 8.960938 31.621094 8.960938 31.324219 L 8.960938 30.828125 C 8.960938 30.820312 8.960938 30.8125 8.960938 30.804688 L 8.9375 30.09375 C 8.933594 30.074219 8.933594 30.054688 8.929688 30.035156 C 8.109375 23.738281 10.128906 20.375 12.84375 18.417969 C 15.558594 16.460938 19.082031 15.976562 21.179688 15.894531 C 21.414062 15.882812 21.621094 15.746094 21.722656 15.535156 L 22.855469 13.113281 C 22.921875 12.976562 22.933594 12.820312 22.890625 12.675781 C 22.277344 10.535156 22.78125 8.730469 23.972656 7.375 C 24.898438 6.316406 26.335938 5.679688 27.9375 5.347656 Z M 27.269531 10.269531 C 27.253906 11.554688 27.890625 12.0625 29.042969 11.957031 C 29.226562 10.855469 28.65625 10.183594 27.269531 10.269531 Z M 14.863281 21.613281 C 14.519531 21.664062 14.28125 21.976562 14.324219 22.320312 C 14.367188 22.632812 14.636719 22.855469 14.945312 22.855469 L 15.03125 22.855469 L 15.03125 22.851562 C 15.375 22.804688 15.613281 22.492188 15.5625 22.148438 C 15.519531 21.804688 15.207031 21.570312 14.863281 21.613281 Z M 28.773438 21.640625 C 30.019531 22.433594 32.261719 23.804688 33.964844 24.402344 C 35.601562 24.980469 36.527344 27.121094 36.738281 27.628906 C 36.484375 27.851562 36.125 28.015625 35.730469 27.996094 C 35.222656 27.976562 34.878906 27.773438 34.78125 27.433594 C 34.769531 27.320312 34.726562 27 34.558594 26.589844 C 34.359375 26.097656 33.9375 25.460938 33.152344 25.289062 C 32.515625 25.152344 31.257812 25.046875 29.9375 24.871094 C 29.277344 24.78125 28.617188 24.683594 28.066406 24.566406 C 27.941406 24.539062 27.847656 24.507812 27.734375 24.480469 C 28.289062 23.644531 28.667969 22.683594 28.773438 21.640625 Z M 17.382812 21.890625 C 17.140625 21.898438 16.914062 22.050781 16.820312 22.292969 C 16.699219 22.613281 16.855469 22.976562 17.179688 23.101562 C 17.257812 23.125 17.332031 23.136719 17.40625 23.136719 C 17.65625 23.136719 17.894531 22.988281 17.988281 22.738281 C 18.113281 22.414062 17.949219 22.050781 17.625 21.929688 C 17.542969 21.898438 17.460938 21.886719 17.382812 21.890625 Z M 12.746094 22.546875 C 12.589844 22.523438 12.421875 22.558594 12.28125 22.664062 C 12.007812 22.867188 11.945312 23.261719 12.148438 23.539062 C 12.273438 23.699219 12.460938 23.792969 12.65625 23.792969 C 12.789062 23.792969 12.914062 23.75 13.023438 23.667969 C 13.304688 23.460938 13.363281 23.070312 13.15625 22.792969 C 13.054688 22.652344 12.90625 22.570312 12.746094 22.546875 Z M 39.734375 23.214844 C 39.398438 23.15625 39.074219 23.386719 39.019531 23.726562 C 38.957031 24.070312 39.1875 24.386719 39.523438 24.449219 C 39.5625 24.457031 39.597656 24.457031 39.628906 24.457031 C 39.929688 24.457031 40.191406 24.246094 40.25 23.9375 C 40.304688 23.601562 40.078125 23.273438 39.734375 23.21875 Z M 19.472656 23.3125 C 19.316406 23.300781 19.148438 23.347656 19.019531 23.460938 C 18.757812 23.6875 18.726562 24.082031 18.949219 24.34375 C 19.074219 24.488281 19.25 24.5625 19.425781 24.5625 C 19.570312 24.5625 19.710938 24.511719 19.832031 24.414062 C 20.09375 24.1875 20.125 23.792969 19.898438 23.53125 C 19.789062 23.398438 19.632812 23.328125 19.472656 23.3125 Z M 42.0625 24.046875 C 41.820312 24.007812 41.574219 24.117188 41.4375 24.34375 C 41.261719 24.636719 41.355469 25.023438 41.652344 25.199219 C 41.75 25.261719 41.863281 25.289062 41.976562 25.289062 C 42.1875 25.289062 42.394531 25.179688 42.507812 24.988281 C 42.6875 24.6875 42.59375 24.304688 42.292969 24.132812 C 42.21875 24.085938 42.140625 24.058594 42.0625 24.046875 Z M 43.636719 25.792969 C 43.554688 25.804688 43.476562 25.832031 43.398438 25.875 C 43.105469 26.050781 43.007812 26.4375 43.179688 26.730469 C 43.300781 26.929688 43.503906 27.039062 43.71875 27.039062 C 43.832031 27.039062 43.9375 27.011719 44.039062 26.949219 C 44.339844 26.777344 44.429688 26.394531 44.257812 26.09375 C 44.125 25.875 43.878906 25.761719 43.636719 25.792969 Z M 22.589844 27.386719 C 22.886719 28.8125 23.472656 30.839844 24.820312 33.125 L 22.980469 33.125 C 22.839844 32.382812 22.457031 31.703125 21.933594 31.164062 C 21.417969 30.632812 20.734375 30.300781 20.003906 30.144531 C 20.519531 29.542969 20.957031 28.613281 21.105469 27.441406 C 21.617188 27.433594 22.113281 27.414062 22.589844 27.386719 Z M 44.410156 28.148438 C 44.074219 28.191406 43.832031 28.503906 43.875 28.851562 C 43.917969 29.167969 44.1875 29.394531 44.492188 29.394531 C 44.519531 29.394531 44.550781 29.394531 44.574219 29.386719 C 44.917969 29.34375 45.15625 29.03125 45.113281 28.695312 L 45.113281 28.6875 C 45.070312 28.347656 44.753906 28.105469 44.410156 28.148438 Z M 44.554688 30.644531 C 44.210938 30.601562 43.902344 30.84375 43.863281 31.1875 C 43.820312 31.53125 44.0625 31.84375 44.40625 31.882812 C 44.433594 31.886719 44.457031 31.886719 44.480469 31.886719 C 44.792969 31.886719 45.0625 31.65625 45.101562 31.335938 C 45.144531 30.996094 44.898438 30.683594 44.554688 30.644531 Z M 40.796875 31.753906 C 40.601562 31.757812 40.414062 31.855469 40.300781 32.015625 L 35.878906 38.203125 C 35.703125 38.453125 35.730469 38.792969 35.949219 39.007812 L 39.039062 42.101562 C 39.257812 42.320312 39.597656 42.347656 39.847656 42.167969 L 40.96875 41.367188 C 40.988281 41.390625 41.007812 41.417969 41.027344 41.4375 C 42.121094 42.53125 43.914062 42.53125 45.007812 41.4375 C 45.894531 40.550781 46.050781 39.199219 45.488281 38.136719 L 46.03125 37.75 C 46.183594 37.644531 46.277344 37.476562 46.292969 37.292969 C 46.308594 37.109375 46.242188 36.929688 46.109375 36.800781 L 41.25 31.9375 C 41.128906 31.820312 40.96875 31.753906 40.796875 31.753906 Z M 40.886719 33.34375 L 44.707031 37.160156 L 39.550781 40.84375 L 37.203125 38.5 Z M 44.46875 38.867188 C 44.699219 39.429688 44.582031 40.09375 44.121094 40.554688 C 43.535156 41.144531 42.621094 41.164062 42.003906 40.628906 Z M 33.75 43.125 C 33.40625 43.125 33.125 43.40625 33.125 43.75 C 33.125 44.09375 33.40625 44.375 33.75 44.375 C 34.09375 44.375 34.375 44.09375 34.375 43.75 C 34.375 43.40625 34.09375 43.125 33.75 43.125 Z M 33.75 45.625 C 33.40625 45.625 33.125 45.90625 33.125 46.25 C 33.125 46.59375 33.40625 46.875 33.75 46.875 C 34.09375 46.875 34.375 46.59375 34.375 46.25 C 34.375 45.90625 34.09375 45.625 33.75 45.625 Z M 33.75 45.625 "/>
</g>
</svg>
