<?xml version="1.0" encoding="UTF-8"?>
<svg xmlns="http://www.w3.org/2000/svg" xmlns:xlink="http://www.w3.org/1999/xlink" width="50pt" height="50pt" viewBox="0 0 50 50" version="1.1">
<g id="surface5800052">
<path style=" stroke:none;fill-rule:nonzero;fill:rgb(255, 255, 255);fill-opacity:1;" d="M 24.0625 3.75 C 22.171875 3.75 20.625 5.296875 20.625 7.1875 L 20.625 7.722656 C 20.027344 7.214844 19.28125 6.875 18.4375 6.875 C 16.546875 6.875 15 8.421875 15 10.3125 L 15 29.984375 L 12.160156 27.070312 C 10.257812 25.121094 7.105469 25.113281 5.195312 27.058594 L 4.011719 28.257812 L 9.027344 33.65625 C 9.078125 33.765625 9.902344 35.664062 11.367188 37.976562 C 12.859375 40.332031 14.945312 43.015625 17.503906 44.363281 C 18.542969 45.148438 19.84375 45.625 21.25 45.625 L 30.625 45.625 C 34.761719 45.625 38.125 42.261719 38.125 38.125 L 38.125 15 C 38.125 13.28125 36.71875 11.875 35 11.875 C 34.285156 11.875 33.652344 12.160156 33.125 12.566406 L 33.125 9.6875 C 33.125 7.796875 31.578125 6.25 29.6875 6.25 C 28.839844 6.25 28.085938 6.59375 27.484375 7.109375 C 27.4375 5.257812 25.925781 3.75 24.0625 3.75 Z M 24.0625 5 C 25.277344 5 26.25 5.972656 26.25 7.1875 L 26.25 9.6875 L 27.5 9.6875 C 27.5 8.472656 28.472656 7.5 29.6875 7.5 C 30.902344 7.5 31.875 8.472656 31.875 9.6875 L 31.875 15 L 33.125 15 C 33.125 13.957031 33.957031 13.125 35 13.125 C 36.042969 13.125 36.875 13.957031 36.875 15 L 36.875 38.125 C 36.875 41.585938 34.085938 44.375 30.625 44.375 L 21.25 44.375 C 20.113281 44.375 19.074219 43.996094 18.234375 43.355469 L 18.191406 43.320312 L 18.140625 43.296875 C 15.933594 42.160156 13.878906 39.59375 12.421875 37.304688 C 10.96875 35.015625 10.109375 33.03125 10.109375 33.03125 L 10.0625 32.933594 L 5.742188 28.28125 L 6.085938 27.933594 C 7.515625 26.480469 9.839844 26.484375 11.265625 27.945312 L 16.25 33.058594 L 16.25 10.3125 C 16.25 9.097656 17.222656 8.125 18.4375 8.125 C 19.652344 8.125 20.625 9.097656 20.625 10.3125 L 21.875 10.3125 L 21.875 7.1875 C 21.875 5.972656 22.847656 5 24.0625 5 Z M 21.25 11.25 C 20.90625 11.25 20.625 11.53125 20.625 11.875 C 20.625 12.21875 20.90625 12.5 21.25 12.5 C 21.59375 12.5 21.875 12.21875 21.875 11.875 C 21.875 11.53125 21.59375 11.25 21.25 11.25 Z M 26.875 11.25 C 26.53125 11.25 26.25 11.53125 26.25 11.875 C 26.25 12.21875 26.53125 12.5 26.875 12.5 C 27.21875 12.5 27.5 12.21875 27.5 11.875 C 27.5 11.53125 27.21875 11.25 26.875 11.25 Z M 21.25 13.75 C 20.90625 13.75 20.625 14.03125 20.625 14.375 C 20.625 14.71875 20.90625 15 21.25 15 C 21.59375 15 21.875 14.71875 21.875 14.375 C 21.875 14.03125 21.59375 13.75 21.25 13.75 Z M 26.875 13.75 C 26.53125 13.75 26.25 14.03125 26.25 14.375 C 26.25 14.71875 26.53125 15 26.875 15 C 27.21875 15 27.5 14.71875 27.5 14.375 C 27.5 14.03125 27.21875 13.75 26.875 13.75 Z M 21.25 16.25 C 20.90625 16.25 20.625 16.53125 20.625 16.875 C 20.625 17.21875 20.90625 17.5 21.25 17.5 C 21.59375 17.5 21.875 17.21875 21.875 16.875 C 21.875 16.53125 21.59375 16.25 21.25 16.25 Z M 26.875 16.25 C 26.53125 16.25 26.25 16.53125 26.25 16.875 C 26.25 17.21875 26.53125 17.5 26.875 17.5 C 27.21875 17.5 27.5 17.21875 27.5 16.875 C 27.5 16.53125 27.21875 16.25 26.875 16.25 Z M 32.5 16.25 C 32.15625 16.25 31.875 16.53125 31.875 16.875 C 31.875 17.21875 32.15625 17.5 32.5 17.5 C 32.84375 17.5 33.125 17.21875 33.125 16.875 C 33.125 16.53125 32.84375 16.25 32.5 16.25 Z M 21.25 18.75 C 20.90625 18.75 20.625 19.03125 20.625 19.375 C 20.625 19.71875 20.90625 20 21.25 20 C 21.59375 20 21.875 19.71875 21.875 19.375 C 21.875 19.03125 21.59375 18.75 21.25 18.75 Z M 26.875 18.75 C 26.53125 18.75 26.25 19.03125 26.25 19.375 C 26.25 19.71875 26.53125 20 26.875 20 C 27.21875 20 27.5 19.71875 27.5 19.375 C 27.5 19.03125 27.21875 18.75 26.875 18.75 Z M 32.5 18.75 C 32.15625 18.75 31.875 19.03125 31.875 19.375 C 31.875 19.71875 32.15625 20 32.5 20 C 32.84375 20 33.125 19.71875 33.125 19.375 C 33.125 19.03125 32.84375 18.75 32.5 18.75 Z M 21.25 21.25 C 20.90625 21.25 20.625 21.53125 20.625 21.875 C 20.625 22.21875 20.90625 22.5 21.25 22.5 C 21.59375 22.5 21.875 22.21875 21.875 21.875 C 21.875 21.53125 21.59375 21.25 21.25 21.25 Z M 26.875 21.25 C 26.53125 21.25 26.25 21.53125 26.25 21.875 C 26.25 22.21875 26.53125 22.5 26.875 22.5 C 27.21875 22.5 27.5 22.21875 27.5 21.875 C 27.5 21.53125 27.21875 21.25 26.875 21.25 Z M 32.5 21.25 C 32.15625 21.25 31.875 21.53125 31.875 21.875 C 31.875 22.21875 32.15625 22.5 32.5 22.5 C 32.84375 22.5 33.125 22.21875 33.125 21.875 C 33.125 21.53125 32.84375 21.25 32.5 21.25 Z M 21.25 23.75 C 20.90625 23.75 20.625 24.03125 20.625 24.375 C 20.625 24.71875 20.90625 25 21.25 25 C 21.59375 25 21.875 24.71875 21.875 24.375 C 21.875 24.03125 21.59375 23.75 21.25 23.75 Z M 26.875 23.75 C 26.53125 23.75 26.25 24.03125 26.25 24.375 C 26.25 24.71875 26.53125 25 26.875 25 C 27.21875 25 27.5 24.71875 27.5 24.375 C 27.5 24.03125 27.21875 23.75 26.875 23.75 Z M 32.5 23.75 C 32.15625 23.75 31.875 24.03125 31.875 24.375 C 31.875 24.71875 32.15625 25 32.5 25 C 32.84375 25 33.125 24.71875 33.125 24.375 C 33.125 24.03125 32.84375 23.75 32.5 23.75 Z M 32.5 23.75 "/>
</g>
</svg>
