<?xml version="1.0" encoding="UTF-8"?>
<svg xmlns="http://www.w3.org/2000/svg" xmlns:xlink="http://www.w3.org/1999/xlink" width="50pt" height="50pt" viewBox="0 0 50 50" version="1.1">
<g id="surface5941885">
<path style=" stroke:none;fill-rule:nonzero;fill:rgb(0, 0, 0);fill-opacity:1;" d="M 29.90625 4.761719 L 29.382812 5.757812 C 29.222656 6.058594 28.96875 6.457031 28.574219 6.859375 L 28.574219 6.863281 C 28.152344 7.292969 27.722656 7.5625 27.414062 7.726562 L 26.257812 8.332031 L 27.453125 8.851562 C 27.730469 8.972656 28.164062 9.199219 28.582031 9.617188 C 29.007812 10.042969 29.238281 10.480469 29.359375 10.757812 L 29.898438 12 L 30.496094 10.785156 C 30.640625 10.484375 30.898438 10.046875 31.335938 9.621094 C 31.738281 9.222656 32.148438 8.980469 32.4375 8.839844 L 33.488281 8.328125 L 32.480469 7.742188 C 32.160156 7.554688 31.75 7.269531 31.339844 6.859375 C 30.9375 6.453125 30.660156 6.046875 30.472656 5.730469 Z M 29.945312 7.078125 C 30.117188 7.304688 30.21875 7.5 30.453125 7.738281 C 30.695312 7.980469 30.894531 8.085938 31.125 8.257812 C 30.894531 8.417969 30.703125 8.488281 30.460938 8.726562 C 30.195312 8.988281 30.117188 9.191406 29.945312 9.4375 C 29.78125 9.191406 29.726562 8.992188 29.464844 8.730469 C 29.203125 8.472656 29.011719 8.417969 28.765625 8.257812 C 29.007812 8.082031 29.210938 7.996094 29.46875 7.738281 C 29.703125 7.496094 29.785156 7.304688 29.945312 7.078125 Z M 18.398438 7.832031 L 18.398438 12.546875 L 19.378906 12.546875 C 22.324219 12.546875 22.324219 15.132812 22.324219 16.320312 C 22.324219 17 22.257812 17.691406 22.15625 18.363281 C 21.171875 17.96875 20.246094 17.742188 19.402344 17.734375 C 18.535156 17.726562 17.71875 17.964844 17.144531 18.539062 C 16.910156 18.773438 16.730469 19.046875 16.601562 19.347656 L 16.589844 19.339844 L 6.996094 43.65625 L 32.191406 35.03125 L 32.183594 35.007812 C 32.527344 34.875 32.84375 34.6875 33.105469 34.425781 C 33.683594 33.851562 33.925781 33.042969 33.917969 32.175781 C 33.910156 31.335938 33.683594 30.417969 33.289062 29.445312 C 34.039062 29.390625 34.832031 29.351562 35.734375 29.351562 C 38.410156 29.351562 40.824219 30.011719 40.824219 31.5625 L 40.824219 32.300781 L 44.65625 32.300781 C 44.65625 32.300781 44.625 31.210938 44.628906 31.035156 C 44.65625 27.386719 40.5625 25.421875 37.496094 25.421875 C 35.023438 25.421875 33.148438 26.074219 31.855469 26.753906 C 31.175781 25.714844 30.34375 24.65625 29.375 23.621094 C 31.023438 23.101562 32.699219 22.78125 32.949219 22.707031 C 34.402344 22.296875 36.523438 21.722656 36.523438 19.421875 C 36.523438 18.554688 35.636719 17.625 35.628906 17.609375 L 37.414062 17.609375 C 38.863281 17.609375 40.09375 16.476562 40.09375 14.890625 L 40.09375 13.644531 C 40.082031 13.28125 40.199219 13.042969 40.273438 12.925781 C 40.53125 12.5 41.058594 12.25 41.671875 12.25 C 41.824219 12.25 41.984375 12.265625 42.148438 12.300781 L 42.773438 12.300781 L 42.773438 8.550781 L 41.324219 8.550781 C 41.320312 8.550781 41.320312 8.546875 41.316406 8.546875 C 39.199219 8.546875 38.082031 9.453125 37.414062 10.359375 C 36.65625 11.382812 36.523438 13.984375 36.523438 13.984375 L 35.628906 13.984375 C 32.949219 13.984375 32.058594 15.796875 32.058594 17.609375 L 32.058594 19.421875 C 30.679688 19.816406 29 20.554688 27.542969 21.84375 C 26.304688 20.75 25.039062 19.84375 23.820312 19.164062 C 24.617188 17.644531 25.269531 15.726562 25.269531 13.492188 C 25.273438 10.664062 23.308594 7.832031 19.304688 7.832031 Z M 19.648438 9.089844 C 22.664062 9.242188 24.023438 11.375 24.023438 13.492188 C 24.023438 14.578125 23.847656 15.585938 23.574219 16.5 C 23.574219 16.441406 23.574219 16.382812 23.574219 16.320312 C 23.574219 13.097656 22.253906 11.410156 19.648438 11.304688 Z M 11.78125 9.761719 L 11.257812 10.757812 C 11.097656 11.058594 10.84375 11.457031 10.449219 11.859375 L 10.449219 11.863281 C 10.027344 12.292969 9.597656 12.5625 9.289062 12.726562 L 8.132812 13.332031 L 9.328125 13.851562 C 9.605469 13.972656 10.039062 14.199219 10.457031 14.617188 C 10.882812 15.042969 11.113281 15.480469 11.234375 15.757812 L 11.773438 17 L 12.371094 15.785156 C 12.515625 15.484375 12.773438 15.046875 13.210938 14.621094 C 13.613281 14.222656 14.023438 13.980469 14.3125 13.839844 L 15.363281 13.328125 L 14.355469 12.742188 C 14.035156 12.554688 13.625 12.269531 13.214844 11.859375 C 12.8125 11.453125 12.535156 11.046875 12.347656 10.730469 Z M 41.324219 9.796875 L 41.523438 9.796875 L 41.523438 11.003906 C 40.523438 11.046875 39.664062 11.515625 39.203125 12.273438 C 38.957031 12.675781 38.835938 13.15625 38.84375 13.660156 L 38.84375 14.890625 C 38.84375 15.726562 38.230469 16.359375 37.414062 16.359375 L 35.628906 16.359375 C 35.167969 16.359375 34.742188 16.613281 34.523438 17.023438 C 34.308594 17.433594 34.335938 17.925781 34.59375 18.308594 C 34.625 18.355469 34.671875 18.414062 34.707031 18.453125 C 35.074219 18.863281 35.273438 19.28125 35.273438 19.421875 C 35.273438 20.554688 34.46875 20.976562 32.664062 21.488281 L 32.613281 21.503906 C 32.554688 21.519531 32.433594 21.542969 32.269531 21.582031 C 31.109375 21.835938 29.804688 22.152344 28.617188 22.550781 C 29.867188 21.519531 31.273438 20.945312 32.398438 20.625 C 32.9375 20.46875 33.308594 19.980469 33.308594 19.421875 L 33.308594 17.609375 C 33.308594 15.234375 35.054688 15.234375 35.628906 15.234375 L 36.523438 15.234375 C 37.1875 15.234375 37.734375 14.710938 37.769531 14.046875 C 37.816406 13.117188 38.070312 11.574219 38.421875 11.101562 C 38.871094 10.496094 39.601562 9.796875 41.324219 9.796875 Z M 11.820312 12.078125 C 11.992188 12.304688 12.09375 12.5 12.328125 12.738281 C 12.570312 12.980469 12.769531 13.085938 13 13.257812 C 12.769531 13.417969 12.578125 13.488281 12.335938 13.726562 C 12.070312 13.988281 11.992188 14.191406 11.820312 14.4375 C 11.65625 14.191406 11.601562 13.992188 11.339844 13.730469 C 11.078125 13.472656 10.886719 13.417969 10.640625 13.257812 C 10.882812 13.082031 11.085938 12.996094 11.34375 12.738281 C 11.578125 12.496094 11.660156 12.304688 11.820312 12.078125 Z M 42.460938 16.671875 L 41.792969 19.597656 L 39.023438 20.148438 L 41.792969 20.625 L 42.460938 23.546875 L 43.125 20.625 L 45.898438 20.148438 L 43.125 19.597656 Z M 19.390625 18.984375 C 20.035156 18.988281 20.859375 19.179688 21.773438 19.554688 C 21.824219 19.574219 21.878906 19.601562 21.929688 19.621094 C 21.5625 21.316406 21.0625 22.667969 20.972656 22.921875 C 21.035156 22.871094 22.128906 21.910156 23.195312 20.246094 C 24.304688 20.867188 25.488281 21.707031 26.652344 22.726562 C 26.355469 23.070312 26.070312 23.441406 25.8125 23.851562 L 24.023438 26.671875 L 26.707031 24.792969 C 27.074219 24.535156 27.5625 24.300781 28.089844 24.085938 C 29.160156 25.183594 30.066406 26.316406 30.785156 27.410156 C 30.128906 27.867188 29.765625 28.242188 29.726562 28.285156 L 27.703125 30.488281 C 27.703125 30.488281 29.140625 29.890625 31.980469 29.5625 C 32.015625 29.648438 32.0625 29.734375 32.097656 29.820312 C 32.472656 30.730469 32.664062 31.546875 32.667969 32.183594 C 32.675781 32.820312 32.515625 33.25 32.226562 33.539062 C 31.914062 33.847656 31.425781 34.015625 30.699219 33.976562 C 29.976562 33.941406 29.050781 33.683594 28.035156 33.21875 C 27.828125 33.109375 27.582031 33.121094 27.394531 33.25 C 27.203125 33.378906 27.097656 33.601562 27.117188 33.832031 C 27.140625 34.058594 27.289062 34.257812 27.5 34.347656 C 27.503906 34.347656 27.507812 34.355469 27.511719 34.355469 C 27.515625 34.359375 27.523438 34.359375 27.527344 34.359375 C 27.972656 34.5625 28.40625 34.726562 28.828125 34.863281 L 9.152344 41.597656 L 16.644531 22.613281 C 16.757812 23 16.898438 23.390625 17.074219 23.796875 C 17.210938 24.113281 17.578125 24.261719 17.894531 24.121094 C 18.210938 23.984375 18.355469 23.617188 18.21875 23.300781 C 17.8125 22.355469 17.597656 21.5 17.582031 20.835938 C 17.566406 20.167969 17.726562 19.722656 18.023438 19.425781 C 18.3125 19.136719 18.75 18.976562 19.390625 18.984375 Z M 7.460938 19.796875 L 6.792969 22.722656 L 4.023438 23.273438 L 6.792969 23.75 L 7.460938 26.671875 L 8.125 23.75 L 10.898438 23.273438 L 8.125 22.722656 Z M 18.558594 24.839844 C 18.476562 24.851562 18.398438 24.878906 18.324219 24.925781 C 18.03125 25.113281 17.945312 25.492188 18.125 25.789062 C 18.242188 25.980469 18.445312 26.085938 18.65625 26.085938 C 18.769531 26.085938 18.882812 26.054688 18.988281 25.992188 C 19.28125 25.8125 19.367188 25.425781 19.1875 25.132812 C 19.050781 24.910156 18.800781 24.800781 18.558594 24.839844 Z M 37.496094 26.671875 C 39.265625 26.671875 41.199219 27.425781 42.3125 28.546875 C 43.027344 29.265625 43.382812 30.101562 43.378906 31.023438 L 43.378906 31.046875 L 42.027344 31.046875 C 41.675781 29.191406 39.378906 28.101562 35.734375 28.101562 C 34.605469 28.101562 33.632812 28.160156 32.726562 28.238281 C 32.65625 28.101562 32.585938 27.960938 32.507812 27.820312 C 33.640625 27.234375 35.296875 26.671875 37.496094 26.671875 Z M 20.171875 26.875 C 20.011719 26.855469 19.847656 26.902344 19.710938 27.007812 C 19.4375 27.226562 19.394531 27.617188 19.613281 27.886719 C 19.738281 28.042969 19.917969 28.125 20.101562 28.125 C 20.238281 28.125 20.375 28.074219 20.492188 27.988281 C 20.761719 27.769531 20.800781 27.375 20.585938 27.105469 C 20.480469 26.972656 20.328125 26.894531 20.171875 26.875 Z M 21.765625 28.742188 C 21.605469 28.738281 21.445312 28.800781 21.320312 28.917969 C 21.074219 29.164062 21.070312 29.554688 21.3125 29.804688 C 21.4375 29.929688 21.59375 29.992188 21.757812 29.992188 C 21.917969 29.992188 22.074219 29.929688 22.195312 29.8125 C 22.445312 29.566406 22.445312 29.175781 22.207031 28.929688 C 22.085938 28.804688 21.925781 28.742188 21.765625 28.742188 Z M 23.539062 30.441406 C 23.378906 30.457031 23.222656 30.53125 23.113281 30.664062 C 22.894531 30.933594 22.925781 31.324219 23.195312 31.542969 C 23.3125 31.644531 23.449219 31.6875 23.59375 31.6875 C 23.773438 31.6875 23.949219 31.613281 24.074219 31.46875 C 24.292969 31.199219 24.253906 30.804688 23.992188 30.585938 C 23.863281 30.476562 23.699219 30.429688 23.539062 30.441406 Z M 25.707031 31.945312 C 25.46875 31.902344 25.214844 32.003906 25.074219 32.21875 C 24.878906 32.507812 24.960938 32.894531 25.25 33.082031 C 25.355469 33.15625 25.472656 33.1875 25.59375 33.1875 C 25.800781 33.1875 25.992188 33.085938 26.117188 32.90625 C 26.304688 32.617188 26.230469 32.230469 25.9375 32.039062 C 25.867188 31.992188 25.789062 31.960938 25.707031 31.945312 Z M 36.15625 35.386719 L 35.632812 36.382812 C 35.472656 36.683594 35.21875 37.082031 34.824219 37.484375 L 34.824219 37.488281 C 34.402344 37.917969 33.972656 38.1875 33.664062 38.351562 L 32.507812 38.957031 L 33.703125 39.476562 C 33.980469 39.597656 34.414062 39.824219 34.832031 40.242188 C 35.257812 40.667969 35.488281 41.105469 35.609375 41.382812 L 36.148438 42.625 L 36.746094 41.410156 C 36.890625 41.109375 37.148438 40.671875 37.585938 40.246094 C 37.988281 39.847656 38.398438 39.605469 38.6875 39.464844 L 39.738281 38.953125 L 38.730469 38.367188 C 38.410156 38.179688 38 37.894531 37.589844 37.484375 C 37.1875 37.078125 36.910156 36.671875 36.722656 36.355469 Z M 36.195312 37.703125 C 36.367188 37.929688 36.46875 38.125 36.703125 38.363281 C 36.945312 38.605469 37.144531 38.710938 37.375 38.882812 C 37.144531 39.042969 36.953125 39.113281 36.710938 39.351562 C 36.445312 39.613281 36.367188 39.816406 36.195312 40.0625 C 36.03125 39.816406 35.976562 39.617188 35.714844 39.355469 C 35.453125 39.097656 35.261719 39.042969 35.015625 38.882812 C 35.257812 38.707031 35.460938 38.621094 35.71875 38.363281 C 35.953125 38.121094 36.035156 37.929688 36.195312 37.703125 Z M 36.195312 37.703125 "/>
</g>
</svg>
