<?xml version="1.0" encoding="UTF-8"?>
<svg xmlns="http://www.w3.org/2000/svg" xmlns:xlink="http://www.w3.org/1999/xlink" width="50pt" height="50pt" viewBox="0 0 50 50" version="1.1">
<g id="surface5800034">
<path style=" stroke:none;fill-rule:nonzero;fill:rgb(0, 0, 0);fill-opacity:1;" d="M 31.875 7.65625 C 29.972656 7.65625 28.519531 8.75 27.609375 10.101562 C 26.695312 11.449219 26.25 13.054688 26.25 14.375 C 26.25 15.609375 26.429688 17.519531 27.027344 19.210938 C 27.328125 20.054688 27.730469 20.847656 28.3125 21.460938 C 28.894531 22.074219 29.691406 22.5 30.625 22.5 C 32.492188 22.5 33.964844 21.40625 34.886719 19.875 C 35.804688 18.347656 36.25 16.375 36.25 14.375 C 36.25 12.347656 35.660156 10.699219 34.835938 9.539062 C 34.007812 8.375 32.953125 7.65625 31.875 7.65625 Z M 19.375 7.875 C 17.585938 7.875 16.253906 8.84375 15.472656 10.117188 C 14.691406 11.390625 14.375 12.957031 14.375 14.375 C 14.375 15.980469 15.007812 17.78125 15.996094 19.238281 C 16.984375 20.699219 18.367188 21.875 20 21.875 C 20.878906 21.875 21.644531 21.582031 22.21875 21.089844 C 22.792969 20.597656 23.183594 19.933594 23.460938 19.203125 C 24.011719 17.742188 24.125 15.972656 24.125 14.375 C 24.125 12.660156 23.511719 11.078125 22.632812 9.894531 C 21.757812 8.710938 20.609375 7.875 19.375 7.875 Z M 31.875 8.90625 C 32.332031 8.90625 33.152344 9.328125 33.816406 10.261719 C 34.480469 11.195312 35 12.59375 35 14.375 C 35 16.183594 34.578125 17.960938 33.816406 19.230469 C 33.050781 20.5 32.023438 21.25 30.625 21.25 C 30.046875 21.25 29.621094 21.027344 29.21875 20.601562 C 28.816406 20.175781 28.46875 19.53125 28.207031 18.792969 C 27.683594 17.316406 27.5 15.480469 27.5 14.375 C 27.5 13.351562 27.890625 11.914062 28.640625 10.800781 C 29.394531 9.6875 30.441406 8.90625 31.875 8.90625 Z M 19.375 9.125 C 19.992188 9.125 20.910156 9.664062 21.628906 10.636719 C 22.351562 11.613281 22.875 12.964844 22.875 14.375 C 22.875 15.902344 22.738281 17.570312 22.289062 18.765625 C 22.066406 19.363281 21.769531 19.832031 21.40625 20.140625 C 21.046875 20.449219 20.621094 20.625 20 20.625 C 19.003906 20.625 17.886719 19.796875 17.03125 18.539062 C 16.175781 17.277344 15.625 15.636719 15.625 14.375 C 15.625 13.148438 15.921875 11.773438 16.535156 10.773438 C 17.152344 9.769531 18.011719 9.125 19.375 9.125 Z M 31.875 9.53125 L 31.375 9.78125 L 31.277344 10.332031 L 31.65625 10.742188 L 31.875 10.78125 L 32.375 10.53125 L 32.472656 9.980469 L 32.09375 9.570312 Z M 19.375 9.75 L 18.875 10 L 18.777344 10.550781 L 19.15625 10.960938 L 19.375 11 L 19.875 10.75 L 19.972656 10.199219 L 19.59375 9.789062 Z M 29.789062 10.726562 L 29.289062 10.976562 L 29.191406 11.53125 L 29.574219 11.9375 L 29.789062 11.976562 L 30.289062 11.726562 L 30.390625 11.175781 L 30.007812 10.765625 Z M 17.4375 11.097656 L 16.9375 11.347656 L 16.839844 11.898438 L 17.222656 12.308594 L 17.4375 12.347656 L 17.941406 12.097656 L 18.039062 11.546875 L 17.65625 11.136719 Z M 28.839844 13.015625 L 28.335938 13.269531 L 28.238281 13.820312 L 28.621094 14.226562 L 28.839844 14.265625 L 29.339844 14.015625 L 29.4375 13.464844 L 29.054688 13.054688 Z M 16.890625 13.519531 L 16.390625 13.769531 L 16.289062 14.320312 L 16.671875 14.730469 L 16.890625 14.769531 L 17.390625 14.519531 L 17.488281 13.964844 L 17.105469 13.558594 Z M 28.871094 15.503906 L 28.371094 15.753906 L 28.273438 16.308594 L 28.65625 16.714844 L 28.871094 16.753906 L 29.375 16.503906 L 29.472656 15.953125 L 29.089844 15.542969 Z M 17.398438 15.941406 L 16.898438 16.191406 L 16.796875 16.742188 L 17.179688 17.152344 L 17.398438 17.191406 L 17.898438 16.9375 L 17.996094 16.386719 L 17.613281 15.980469 Z M 29.453125 17.929688 L 28.953125 18.179688 L 28.851562 18.730469 L 29.234375 19.140625 L 29.453125 19.179688 L 29.953125 18.929688 L 30.050781 18.378906 L 29.667969 17.96875 Z M 18.753906 18.019531 L 18.253906 18.269531 L 18.15625 18.820312 L 18.539062 19.230469 L 18.753906 19.269531 L 19.253906 19.019531 L 19.355469 18.464844 L 18.972656 18.058594 Z M 40 19.878906 C 39.113281 19.921875 38.238281 20.324219 37.441406 20.976562 C 36.378906 21.84375 35.398438 23.164062 34.492188 24.855469 C 33.425781 26.855469 33.152344 28.683594 33.542969 30.152344 C 33.933594 31.621094 35.035156 32.691406 36.46875 33.027344 C 37.902344 33.363281 39.308594 32.785156 40.445312 31.738281 C 41.582031 30.691406 42.515625 29.164062 43.179688 27.410156 C 43.734375 25.9375 43.746094 24.28125 43.363281 22.886719 C 42.976562 21.488281 42.171875 20.265625 40.886719 19.960938 C 40.589844 19.890625 40.296875 19.867188 40 19.878906 Z M 11.25 20 C 9.976562 20 8.773438 20.871094 7.839844 22.117188 C 6.910156 23.363281 6.25 25.042969 6.25 26.875 C 6.25 28.15625 6.765625 29.636719 7.621094 30.871094 C 8.476562 32.101562 9.726562 33.125 11.25 33.125 C 12.738281 33.125 13.886719 32.082031 14.585938 30.6875 C 15.285156 29.292969 15.625 27.496094 15.625 25.625 C 15.625 24.195312 15.125 22.828125 14.347656 21.789062 C 13.566406 20.75 12.476562 20 11.25 20 Z M 40.046875 21.125 C 40.234375 21.117188 40.417969 21.136719 40.601562 21.179688 C 41.226562 21.328125 41.84375 22.082031 42.160156 23.21875 C 42.472656 24.355469 42.453125 25.785156 42.007812 26.96875 C 41.402344 28.582031 40.539062 29.953125 39.601562 30.816406 C 38.660156 31.683594 37.710938 32.035156 36.753906 31.808594 C 35.730469 31.570312 35.035156 30.90625 34.75 29.832031 C 34.464844 28.757812 34.636719 27.242188 35.59375 25.441406 L 35.597656 25.441406 C 36.449219 23.847656 37.363281 22.652344 38.230469 21.941406 C 38.882812 21.410156 39.480469 21.148438 40.046875 21.125 Z M 11.25 21.25 C 11.949219 21.25 12.734375 21.71875 13.347656 22.539062 C 13.960938 23.355469 14.375 24.492188 14.375 25.625 C 14.375 27.339844 14.042969 28.980469 13.46875 30.128906 C 12.894531 31.273438 12.167969 31.875 11.25 31.875 C 10.300781 31.875 9.363281 31.183594 8.648438 30.15625 C 7.933594 29.128906 7.5 27.796875 7.5 26.875 C 7.5 25.34375 8.066406 23.902344 8.839844 22.863281 C 9.617188 21.824219 10.601562 21.25 11.25 21.25 Z M 40.328125 21.773438 L 39.828125 22.023438 L 39.726562 22.574219 L 40.109375 22.984375 L 40.328125 23.023438 L 40.828125 22.769531 L 40.925781 22.21875 L 40.542969 21.808594 Z M 11.25 21.875 L 10.75 22.125 L 10.652344 22.675781 L 11.03125 23.085938 L 11.25 23.125 L 11.75 22.875 L 11.847656 22.324219 L 11.46875 21.914062 Z M 38.273438 23.03125 L 37.773438 23.28125 L 37.671875 23.832031 L 38.058594 24.242188 L 38.273438 24.28125 L 38.773438 24.027344 L 38.871094 23.476562 L 38.488281 23.070312 Z M 9.492188 23.5625 L 8.992188 23.8125 L 8.894531 24.363281 L 9.273438 24.773438 L 9.492188 24.8125 L 9.992188 24.558594 L 10.089844 24.007812 L 9.710938 23.601562 Z M 36.875 25.097656 L 36.375 25.347656 L 36.277344 25.902344 L 36.660156 26.308594 L 36.875 26.347656 L 37.375 26.097656 L 37.476562 25.546875 L 37.09375 25.136719 Z M 8.765625 25.929688 L 8.265625 26.179688 L 8.164062 26.730469 L 8.546875 27.136719 L 8.765625 27.175781 L 9.265625 26.925781 L 9.363281 26.375 L 8.980469 25.964844 Z M 25 26.875 C 23.441406 26.875 22.167969 27.589844 21.042969 28.574219 C 19.914062 29.554688 18.882812 30.8125 17.675781 32.066406 C 16.5 33.285156 15.28125 34.082031 14.277344 35.007812 C 13.277344 35.933594 12.5 37.085938 12.5 38.75 C 12.5 40.703125 14.375 42.5 17.5 42.5 C 17.5625 42.5 17.625 42.492188 17.683594 42.472656 L 17.753906 42.488281 L 18.253906 42.238281 L 18.355469 41.6875 L 17.972656 41.277344 L 17.753906 41.238281 L 17.679688 41.273438 C 17.621094 41.257812 17.5625 41.25 17.5 41.25 C 14.824219 41.25 13.75 39.914062 13.75 38.75 C 13.75 37.441406 14.246094 36.742188 15.128906 35.925781 C 16.011719 35.109375 17.292969 34.265625 18.574219 32.933594 C 19.824219 31.636719 20.855469 30.394531 21.863281 29.515625 C 22.875 28.636719 23.8125 28.125 25 28.125 C 26.355469 28.125 27.136719 28.699219 27.976562 29.699219 C 28.8125 30.695312 29.609375 32.117188 30.765625 33.523438 C 31.863281 34.855469 33.386719 35.40625 34.503906 35.976562 C 35.058594 36.261719 35.511719 36.546875 35.800781 36.867188 C 36.089844 37.191406 36.25 37.535156 36.25 38.125 C 36.25 39.21875 35.980469 39.945312 35.433594 40.4375 C 34.882812 40.933594 33.960938 41.25 32.5 41.25 C 32.273438 41.246094 32.066406 41.367188 31.953125 41.558594 C 31.835938 41.753906 31.835938 41.996094 31.953125 42.191406 C 32.066406 42.386719 32.273438 42.503906 32.5 42.5 C 34.140625 42.5 35.40625 42.144531 36.269531 41.367188 C 37.132812 40.589844 37.5 39.4375 37.5 38.125 C 37.5 37.269531 37.199219 36.554688 36.734375 36.035156 C 36.269531 35.515625 35.675781 35.171875 35.070312 34.863281 C 33.855469 34.242188 32.566406 33.742188 31.734375 32.726562 C 30.664062 31.425781 29.886719 30.03125 28.933594 28.894531 C 27.976562 27.757812 26.746094 26.875 25 26.875 Z M 35.960938 27.410156 L 35.460938 27.664062 L 35.359375 28.214844 L 35.742188 28.621094 L 35.960938 28.660156 L 36.460938 28.410156 L 36.558594 27.859375 L 36.175781 27.449219 Z M 9.375 28.3125 L 8.875 28.5625 L 8.777344 29.117188 L 9.160156 29.523438 L 9.375 29.5625 L 9.878906 29.3125 L 9.976562 28.761719 L 9.59375 28.351562 Z M 36.496094 29.722656 L 35.996094 29.972656 L 35.894531 30.523438 L 36.277344 30.933594 L 36.496094 30.972656 L 36.996094 30.71875 L 37.09375 30.167969 L 36.710938 29.761719 Z M 11.128906 29.984375 L 10.628906 30.234375 L 10.53125 30.789062 L 10.910156 31.195312 L 11.128906 31.234375 L 11.628906 30.984375 L 11.726562 30.433594 L 11.34375 30.023438 Z M 25.125 40.007812 L 24.625 40.257812 L 24.527344 40.808594 L 24.910156 41.21875 L 25.125 41.257812 L 25.625 41.007812 L 25.726562 40.453125 L 25.339844 40.046875 Z M 22.648438 40.289062 L 22.148438 40.539062 L 22.050781 41.09375 L 22.429688 41.5 L 22.648438 41.539062 L 23.148438 41.289062 L 23.25 40.738281 L 22.863281 40.328125 Z M 27.601562 40.320312 L 27.101562 40.570312 L 27.003906 41.121094 L 27.382812 41.53125 L 27.601562 41.570312 L 28.101562 41.320312 L 28.199219 40.765625 L 27.816406 40.359375 Z M 20.226562 40.917969 L 19.726562 41.167969 L 19.628906 41.71875 L 20.011719 42.128906 L 20.226562 42.167969 L 20.730469 41.914062 L 20.828125 41.363281 L 20.445312 40.957031 Z M 30.027344 40.917969 L 29.527344 41.167969 L 29.429688 41.71875 L 29.8125 42.128906 L 30.027344 42.167969 L 30.527344 41.917969 L 30.628906 41.367188 L 30.242188 40.957031 Z M 30.027344 40.917969 "/>
</g>
</svg>
