<?xml version="1.0" encoding="UTF-8"?>
<svg xmlns="http://www.w3.org/2000/svg" xmlns:xlink="http://www.w3.org/1999/xlink" width="50pt" height="50pt" viewBox="0 0 50 50" version="1.1">
<g id="surface5804200">
<path style=" stroke:none;fill-rule:nonzero;fill:rgb(253, 198, 248);fill-opacity:1;" d="M 42.496094 42.292969 C 42.496094 45.621094 40.414062 47.289062 36.246094 47.289062 C 32.707031 47.289062 29.582031 46.046875 25.414062 46.046875 C 21.460938 46.046875 19.164062 47.917969 14.796875 47.917969 C 10.832031 47.917969 9.164062 45.003906 9.164062 42.921875 C 9.164062 38.753906 12.289062 38.125 15.835938 34.585938 C 19.164062 31.039062 21.25 27.082031 25 27.082031 C 29.378906 27.082031 30.625 31.664062 33.75 35.417969 C 36.457031 38.542969 42.496094 38.328125 42.496094 42.292969 Z M 33.121094 20.621094 C 37.710938 20.621094 40.210938 15.210938 40.210938 9.789062 C 40.210938 4.582031 36.875 2.082031 34.585938 2.082031 C 29.792969 2.082031 27.5 6.875 27.5 10 C 27.5 13.332031 28.75 20.621094 33.121094 20.621094 Z M 16.667969 20.621094 C 20.832031 20.621094 21.875 15.210938 21.875 9.789062 C 21.875 6.039062 19.375 2.710938 16.878906 2.710938 C 12.5 2.710938 10.417969 7.292969 10.417969 11.042969 C 10.207031 14.371094 12.914062 20.621094 16.667969 20.621094 Z M 11.875 25.832031 C 11.875 22.289062 8.960938 18.960938 6.25 18.960938 C 3.539062 18.960938 0 23.332031 0 27.914062 C 0 30.835938 2.5 35.417969 6.039062 35.417969 C 9.375 35.417969 11.875 30.835938 11.875 25.832031 Z M 46.875 18.960938 C 44.164062 18.335938 41.25 20.832031 38.753906 25.210938 C 35.832031 30.421875 37.5 34.375 41.039062 35.203125 C 44.375 36.042969 47.707031 32.707031 49.585938 28.125 C 50.832031 24.375 49.585938 19.578125 46.875 18.960938 Z M 46.875 18.960938 "/>
</g>
</svg>
